<?xml version="1.0" encoding="UTF-8" standalone="no"?>
<svg
   xmlns:dc="http://purl.org/dc/elements/1.1/"
   xmlns:cc="http://creativecommons.org/ns#"
   xmlns:rdf="http://www.w3.org/1999/02/22-rdf-syntax-ns#"
   xmlns:svg="http://www.w3.org/2000/svg"
   xmlns="http://www.w3.org/2000/svg"
   viewBox="0 0 302.36132 64.252663"
   height="64.252663"
   width="302.36133"
   xml:space="preserve"
   id="svg2"
   version="1.1"><metadata
     id="metadata8"><rdf:RDF><cc:Work
         rdf:about=""><dc:format>image/svg+xml</dc:format><dc:type
           rdf:resource="http://purl.org/dc/dcmitype/StillImage" /><dc:title></dc:title></cc:Work></rdf:RDF></metadata><defs
     id="defs6" /><g
     transform="matrix(1.3333333,0,0,-1.3333333,9.4486664,64.252665)"
     id="g10"><g
       id="g1147"><g
         id="ru_logo_en"
         transform="scale(0.1)"><path
           d="m 34.8945,262.363 -0.1601,-21.367 v -6.66 l 0.1601,-4.871 c -0.1601,-3.574 0.543,-4.309 3.7188,-4.309 11.4844,0 18.1836,1.438 22.2656,4.688 4.9414,4.121 7.9766,10.781 7.9766,17.793 0,10.051 -5.5039,17.812 -14.1485,20.144 -3.5742,0.918 -8.5078,1.274 -15.1953,1.274 -3.8984,0 -4.6172,-0.356 -4.6172,-2.903 z m -0.1601,-59.558 c 0,-9.414 0.1601,-25.469 0.3242,-31.418 0.1953,-4.336 1.6016,-5.789 7.4609,-7.176 3.875,-0.898 4.5821,-1.484 4.5821,-4.223 v -3.457 c 0,-2.168 -0.5586,-2.918 -2.2969,-2.918 -1.25,0 -4.0625,0.196 -7.0625,0.352 -3.3672,0.195 -8.3164,0.398 -13.7969,0.398 -6.5351,0 -10.957,-0.203 -14.40624,-0.398 -3.00781,-0.156 -5.99218,-0.352 -7.0664,-0.352 C 0.546875,153.613 0,154.363 0,156.531 v 3.457 c 0,2.739 0.722656,3.325 4.79688,4.223 5.73832,1.387 7.12892,2.84 7.29292,7.176 0.1836,7.031 0.3516,20.215 0.3516,31.418 v 29.207 c 0,11.172 -0.168,24.074 -0.3516,31.269 -0.164,4.5 -1.5546,5.774 -7.29292,7.227 C 0.722656,271.426 0,271.926 0,274.648 v 3.582 c 0,2.161 0.546875,2.915 2.14063,2.915 1.74609,0 4.39062,-0.188 7.39843,-0.372 3.09764,-0.168 7.17184,-0.382 12.80474,-0.382 8.8476,0 8.8476,0 25.2929,0.566 3.4961,0.188 6.711,0.188 9.5313,0.188 12.3828,0 20.7031,-2.727 26.6875,-9.036 5.4687,-5.625 8.8476,-13.886 8.8476,-22.004 0,-13.789 -8.4843,-26.621 -20.3203,-29.824 -3.9062,-1.101 -4.2461,-1.265 -4.2461,-2.183 0,-0.188 0.1914,-0.539 0.7188,-1.086 1.2031,-2.141 2.2656,-3.946 2.8164,-5.598 3.7187,-8.476 15.75,-29.578 21.9336,-38.023 4.8515,-6.875 7.1175,-8.828 12.4295,-10.078 3.379,-0.918 3.543,-1.125 3.543,-4.094 v -3.086 c 0,-1.602 -1.082,-2.52 -2.848,-2.52 h -1.386 c -3.906,0.196 -10.1799,0.352 -14.426,0.352 -2.6485,0 -6.3399,-0.156 -10.5742,-0.352 H 77.5 c -3.3398,0 -3.3398,0 -7.6055,10.95 -1.5664,3.972 -13.6054,29.722 -19.9609,43.085 -2.9922,6.493 -3.7344,7.04 -7.9531,7.04 h -1.2383 c -0.7149,-0.184 -1.2305,-0.184 -1.2305,-0.184 l -2.8515,0.184 c -1.0469,0 -1.9258,-1.25 -1.9258,-3.274 v -8.609"
           style="fill:#b72021;fill-opacity:1;fill-rule:nonzero;stroke:none"
           id="path14" /><path
           d="m 171.266,189.98 c 0,2.723 -0.188,3.223 -1.438,3.223 -0.351,0 -0.711,0 -1.238,-0.168 l -1.942,-0.332 c -9.734,-2 -12.878,-2.918 -16.597,-5.074 -5.117,-2.902 -7.446,-6.66 -7.446,-11.566 0,-6.09 4.067,-10.118 10.098,-10.118 5.117,0 11.125,2.754 15.035,6.711 2.629,2.891 3.528,5.762 3.528,12.239 z m -43.485,43.79 c 0.532,4.875 1.77,6.335 7.231,7.793 6.211,1.433 16.101,2.683 22.808,2.683 22.625,0 32.957,-8.094 32.957,-25.601 l -0.527,-33.184 c 0,-18.059 0,-18.195 2.117,-20.219 1.594,-1.226 3.352,-1.765 7.617,-2.144 3.536,-0.371 4.582,-0.91 4.582,-3.11 v -2.722 c 0,-2 -0.527,-2.356 -3.711,-3.106 l -20.949,-3.601 c -1.043,-0.168 -2.461,-0.356 -3.886,-0.356 -1.758,0 -2.821,0.754 -3.172,2.727 -0.528,1.23 -1.055,5.793 -0.871,7.058 0,3.325 -0.372,4.758 -1.258,4.758 -0.176,0 -0.696,-0.371 -1.242,-0.73 -1.043,-1.078 -8.293,-6.235 -10.754,-7.7 -4.778,-2.871 -11.321,-4.656 -17.5,-4.656 -11.145,0 -19.985,9.817 -19.985,22.649 0,6.113 1.953,13.836 4.426,17.644 1.414,1.973 1.582,2.168 10.945,3.977 l 23.332,4.656 c 10.082,2.219 11.325,3.105 11.325,8.523 v 3.039 c 0,12.286 -4.618,16.961 -16.442,16.961 -7.617,0 -17.683,-2.871 -24.402,-6.843 -1.43,-0.95 -2.109,-1.106 -2.641,-1.106 -0.867,0 -1.25,0.727 -1.25,2.16 v 1.114 l 1.25,9.336"
           style="fill:#b72021;fill-opacity:1;fill-rule:nonzero;stroke:none"
           id="path16" /><path
           d="m 232.32,200.449 c 0,-19.812 8.496,-33.75 20.848,-33.75 12.746,0 18.937,10.637 18.937,32.266 0,11.183 -1.242,18.594 -3.898,23.652 -3.152,5.574 -8.672,9.031 -14.852,9.031 -12.382,0 -21.035,-12.839 -21.035,-31.199 z m 55.41,89.336 c 0.879,0.188 1.758,0.188 2.137,0.188 1.574,0 2.461,-1.086 2.461,-3.254 l -1.25,-55.071 v -32.136 c 0,-23.449 0.168,-29.356 1.418,-31.731 1.582,-3.406 2.84,-4.121 10.43,-4.843 1.59,0 2.469,-0.75 2.469,-2 v -3.321 c 0,-1.816 -0.536,-2.351 -3.7,-2.922 l -22.804,-4.492 c -1.414,-0.164 -2.469,-0.379 -3.184,-0.379 -1.375,0 -1.855,0.918 -2.012,3.274 l -0.547,7.625 c -0.351,4.336 -0.351,4.519 -1.562,4.519 -0.184,0 -0.898,-0.347 -1.621,-1.031 -1.406,-1.484 -6.18,-5.141 -9.375,-7.512 -5.281,-3.601 -9.871,-5.039 -15.703,-5.039 -19.461,0 -33.418,17.942 -33.418,43.352 0,29.226 16.621,49.234 40.664,49.234 4.777,0 14.14,-1.949 16.426,-3.418 0.507,-0.515 1.054,-0.723 1.222,-0.723 0.703,0 1.434,1.458 1.434,2.891 0,0.188 0,0.188 -0.184,3.227 l -0.168,19.226 c 0,9.364 -0.535,10.117 -8.308,11.387 -3.36,0.332 -4.055,0.852 -4.055,3.418 v 3.391 c 0,1.835 0.695,2.371 3.535,2.722 l 25.695,3.418"
           style="fill:#b72021;fill-opacity:1;fill-rule:nonzero;stroke:none"
           id="path18" /><path
           d="m 347.289,215.422 c -1.961,-4.926 -2.82,-12.082 -2.82,-23.469 0,-13.906 0.515,-18.762 1.953,-21.98 1.941,-3.813 7.734,-6.875 13.23,-6.875 13.703,0 23.938,14.8 23.938,34.832 0,18.894 -7.766,31.347 -19.59,31.347 -6.797,0 -13.516,-5.39 -16.711,-13.855 z m -22.449,18.543 c 0,15.41 -0.156,33.437 -0.508,36.726 -0.363,4.122 -2.305,5.747 -7.266,6.313 -4.406,0.332 -5.48,1.031 -5.48,3.25 v 3.039 c 0,1.641 0.723,2.187 3.008,2.508 l 25.793,3.789 3.379,0.547 c 1.218,0 2.109,-1.25 2.109,-3.035 0,-0.571 0,-1.457 -0.176,-2.524 -0.187,-4.539 -0.371,-9.765 -0.527,-24.351 0,-11.184 -0.188,-19.602 -0.344,-24.789 l -0.164,-3.102 v -1.223 c 0,-0.73 0.32,-1.101 0.848,-1.101 0.91,0 3.019,2 7.082,6.304 5.652,6.145 10.027,7.93 18.652,7.93 20.32,0 33.192,-16.055 33.192,-41.824 0,-30.313 -19.071,-50.762 -47.235,-50.762 -9.551,0 -22.277,3.25 -29.894,7.727 -2.286,1.336 -3.164,2.801 -3.164,5.855 v 2.024 c 0.351,15.488 0.539,34.453 0.695,56.789 v 9.91"
           style="fill:#b72021;fill-opacity:1;fill-rule:nonzero;stroke:none"
           id="path20" /><path
           d="m 439.727,199.133 c 0,-19.414 10.246,-33.703 24.328,-33.703 12.539,0 22.254,13.34 22.254,30.691 0,20.356 -9.903,34.809 -23.875,34.809 -13.137,0 -22.707,-13.371 -22.707,-31.797 z m 61.23,26.375 c 4.102,-7.219 6.367,-16.043 6.367,-25.242 0,-12.453 -4.043,-24.719 -11.133,-33.403 -8.125,-9.976 -20.136,-15.203 -35.332,-15.203 -25.511,0 -41.976,17.039 -41.976,43.914 0,14.055 4.597,26.692 12.91,35.539 8.297,8.992 18.512,13.133 32.262,13.133 16.773,0 30.008,-6.656 36.902,-18.738"
           style="fill:#b72021;fill-opacity:1;fill-rule:nonzero;stroke:none"
           id="path22" /><path
           d="m 605.344,200.449 c 0.176,-16.972 0.34,-26.875 0.711,-29.98 0.691,-4.871 2.453,-6.094 9.148,-6.992 2.856,-0.379 3.371,-0.918 3.371,-3.106 v -2.402 c 0,-2.168 -0.515,-2.703 -3.008,-3.059 l -24.011,-3.25 c -1.25,-0.183 -2.297,-0.371 -2.473,-0.371 -2.129,0 -2.129,0 -3.391,12.371 -0.156,2.688 -0.679,3.938 -1.726,3.938 -0.527,0 -1.426,-0.547 -3.731,-2.852 -12.011,-11.133 -15.554,-13.086 -25.097,-13.086 -6.707,0 -13.606,1.785 -18.274,4.871 -5.664,3.457 -8.133,9.629 -8.133,19.532 0,1.437 0,4.574 0.165,7.777 v 9.363 15.906 c 0,21.086 -0.528,22.707 -7.618,23.391 -4.05,0.352 -4.91,0.918 -4.91,2.938 v 3.039 c 0,2.148 0.488,2.519 2.996,2.902 l 26.035,2.488 c 1.809,0.188 3.032,0.379 3.188,0.379 1.258,0 1.785,-0.711 1.785,-2.144 0,-0.891 0,-2.356 -0.176,-3.997 -0.703,-8.449 -1.062,-20.007 -1.062,-28.64 v -14.106 c 0,-16.394 0.359,-19.097 3.172,-23.086 2.136,-3.054 5.996,-4.675 10.965,-4.675 8.3,0 15.746,3.972 18.918,10.117 2.292,4.121 2.824,8.664 2.824,22.734 v 8.828 c 0,6.844 -0.364,16.426 -0.715,18.211 -0.692,3.242 -2.461,4.707 -6.914,5.227 -4.043,0.351 -4.922,0.89 -4.922,2.723 v 3.207 c 0,1.98 0.527,2.566 3,2.734 l 25.445,2.676 c 1.047,0.191 2.121,0.191 2.864,0.191 1.75,0 2.285,-0.547 2.285,-2.144 l -0.196,-4.68 c -0.175,-4.707 -0.175,-4.707 -0.339,-12.637 -0.176,-3.254 -0.176,-7.226 -0.176,-11.719 v -12.617"
           style="fill:#b72021;fill-opacity:1;fill-rule:nonzero;stroke:none"
           id="path24" /><path
           d="m 649.297,200.449 c 0,-19.812 8.476,-33.75 20.848,-33.75 12.738,0 18.902,10.637 18.902,32.266 0,11.183 -1.25,18.594 -3.871,23.652 -3.184,5.574 -8.653,9.031 -14.856,9.031 -12.382,0 -21.023,-12.839 -21.023,-31.199 z m 55.492,89.336 c 0.859,0.188 1.77,0.188 2.121,0.188 1.59,0 2.469,-1.086 2.469,-3.254 l -1.238,-55.071 v -32.136 c 0,-23.449 0.195,-29.356 1.414,-31.731 1.593,-3.406 2.832,-4.121 10.312,-4.843 1.613,0 2.492,-0.75 2.492,-2 v -3.321 c 0,-1.816 -0.527,-2.351 -3.691,-2.922 l -22.715,-4.492 c -1.437,-0.164 -2.5,-0.379 -3.176,-0.379 -1.445,0 -1.953,0.918 -2.129,3.274 l -0.515,7.625 c -0.383,4.336 -0.383,4.519 -1.621,4.519 -0.168,0 -0.871,-0.347 -1.578,-1.031 -1.387,-1.484 -6.18,-5.141 -9.368,-7.512 -5.3,-3.601 -9.898,-5.039 -15.742,-5.039 -19.422,0 -33.394,17.942 -33.394,43.352 0,29.226 16.609,49.234 40.64,49.234 4.809,0 14.153,-1.949 16.477,-3.418 0.508,-0.515 1.035,-0.723 1.199,-0.723 0.703,0 1.434,1.458 1.434,2.891 0,0.188 0,0.188 -0.188,3.227 l -0.195,19.226 c 0,9.364 -0.524,10.117 -8.277,11.387 -3.375,0.332 -4.071,0.852 -4.071,3.418 v 3.391 c 0,1.835 0.696,2.371 3.535,2.722 l 25.805,3.418"
           style="fill:#b72021;fill-opacity:1;fill-rule:nonzero;stroke:none"
           id="path26" /><path
           d="m 789.535,232.012 c 0,11.172 -0.164,24.074 -0.351,31.269 -0.176,4.5 -1.602,5.774 -7.411,7.227 -4.093,0.918 -4.804,1.418 -4.804,4.14 v 3.582 c 0,2.161 0.547,2.915 2.312,2.915 1.055,0 4.231,-0.188 7.266,-0.372 3.34,-0.168 8.301,-0.382 13.769,-0.382 6.438,0 10.872,0.214 14.407,0.382 2.996,0.184 6.015,0.372 7.07,0.372 1.758,0 2.273,-0.754 2.273,-2.915 v -3.582 c 0,-2.722 -0.703,-3.222 -4.589,-4.14 -6.004,-1.453 -7.235,-2.727 -7.411,-7.227 -0.187,-5.945 -0.363,-21.902 -0.363,-31.269 v -19.114 c 0,-20.73 0.899,-28.875 4.074,-34.644 4.766,-8.652 14.688,-13.691 27.051,-13.691 14.813,0 25.262,6.089 29.149,17.109 2.304,6.844 2.461,9.578 2.461,32.098 v 18.242 c 0,10.652 -0.157,24.426 -0.34,31.269 -0.176,4.5 -1.418,5.774 -7.403,7.227 -4.082,0.918 -4.785,1.418 -4.785,4.14 v 3.582 c 0,2.161 0.535,2.915 2.293,2.915 1.231,0 4.231,-0.188 7.266,-0.372 3.34,-0.168 6.875,-0.382 10.051,-0.382 3.906,0 7.089,0.214 10.507,0.382 2.996,0.184 6.024,0.372 7.246,0.372 1.766,0 2.286,-0.754 2.286,-2.915 v -3.582 c 0,-2.722 -0.696,-3.222 -4.778,-4.14 -5.965,-1.453 -7.129,-2.727 -7.293,-7.227 -0.187,-6.14 -0.351,-21.367 -0.351,-31.269 v -17.508 c 0,-21.301 -0.383,-26.691 -1.77,-32.832 -4.609,-19.848 -21.375,-30.012 -49.5,-30.012 -21.738,0 -37.031,7.063 -43.554,19.91 -3.743,7.578 -4.778,16.059 -4.778,42.2 v 18.242"
           style="fill:#b72021;fill-opacity:1;fill-rule:nonzero;stroke:none"
           id="path28" /><path
           d="m 907.445,237.234 c 0,2.707 0.344,3.246 2.637,3.594 l 25.098,3.039 c 1.582,0.188 2.824,0.379 3.019,0.379 1.406,0 2.266,-1.25 2.469,-3.418 0.168,-1.453 0.52,-9.898 0.52,-10.816 0.195,-2.168 0.859,-3.774 1.765,-3.774 0.547,0 1.262,0.52 1.953,1.25 l 1.77,1.977 3.367,3.387 c 8.469,9.25 12.887,11.394 23.141,11.394 12.636,0 21.992,-4.871 25.339,-13.316 1.787,-4.336 1.787,-4.336 1.787,-30.664 v -5.981 c 0,-10.808 0.16,-21.094 0.35,-24.683 0.36,-3.821 1.4,-4.856 6.72,-6.504 5.29,-1.621 5.46,-1.809 5.46,-4.184 v -2.945 c 0,-1.809 -0.53,-2.356 -1.92,-2.356 h -1.27 c -4.58,0.352 -12.892,0.547 -19.435,0.547 -6.692,0 -14.902,-0.195 -19.531,-0.547 h -1.219 c -1.418,0 -1.953,0.75 -1.953,2.356 v 2.945 c 0,2.375 0.191,2.563 5.496,4.184 5.293,1.648 6.301,2.683 6.633,6.504 0.164,4.136 0.347,14.07 0.347,24.683 v 5.981 c 0,11.336 -0.484,16.211 -1.851,20.015 -1.953,4.875 -6.731,7.563 -13.274,7.563 -7.222,0 -13.929,-3.41 -18.023,-9.199 -2.969,-4.141 -3.711,-8.149 -3.711,-19.68 v -4.68 c 0,-11.18 0.195,-20.547 0.371,-24.683 0.371,-3.821 1.406,-4.856 6.543,-6.504 5.293,-1.809 5.469,-1.809 5.469,-4.184 v -2.945 c 0,-1.606 -0.528,-2.356 -1.953,-2.356 h -1.239 c -4.609,0.352 -12.539,0.547 -19.257,0.547 -6.719,0 -15.391,-0.195 -19.629,-0.547 h -1.243 c -1.394,0 -1.921,0.75 -1.921,2.356 v 2.945 c 0,2.375 0.164,2.563 5.476,4.184 5.305,1.648 6.348,2.683 6.719,6.504 0.168,3.789 0.344,13.503 0.344,24.683 v 6.301 c 0,8.879 -1.055,22.898 -2.129,26.172 -0.879,3.086 -2.657,4.172 -8.125,4.519 -4.25,0.371 -5.11,0.735 -5.11,2.328 v 3.629"
           style="fill:#b72021;fill-opacity:1;fill-rule:nonzero;stroke:none"
           id="path30" /><path
           d="m 1061.81,270.508 c 0,-7.41 -6.18,-13.367 -13.98,-13.367 -7.59,0 -13.76,5.789 -13.76,13.203 0,7.691 5.81,12.949 14.47,12.949 7.8,0 13.27,-5.258 13.27,-12.785 z m -22.09,-61.399 c 0,21.274 -0.35,22.539 -7.62,23.391 -4.06,0.352 -4.93,0.918 -4.93,2.734 v 3.243 c 0,2.003 0.54,2.519 3,2.734 l 25.27,2.656 1.44,0.188 c 0.49,0.191 1.03,0.191 1.4,0.191 1.57,0 2.27,-1.25 2.27,-3.418 0,-0.348 0,-0.348 -0.15,-7.058 -0.19,-3.04 -0.36,-20.547 -0.36,-30.43 v -9.055 c 0,-10.808 0.17,-20.359 0.36,-24.683 0.35,-3.821 1.41,-4.856 6.47,-6.504 5.25,-1.621 5.43,-1.809 5.43,-4.184 v -2.945 c 0,-1.606 -0.51,-2.356 -1.93,-2.356 h -1.22 c -4.52,0.352 -12.44,0.547 -19.17,0.547 -6.74,0 -15.2,-0.195 -19.64,-0.547 h -1.25 c -1.58,0 -1.92,0.547 -1.92,2.356 v 2.945 c 0,2.375 0,2.375 5.47,4.184 5.47,1.797 6.36,2.683 6.73,6.504 0.16,4.707 0.35,12.957 0.35,24.683 v 14.824"
           style="fill:#b72021;fill-opacity:1;fill-rule:nonzero;stroke:none"
           id="path32" /><path
           d="m 1168.81,238.645 c 0,-2.493 0,-2.493 -3.39,-3.411 -2.29,-1.086 -3.37,-2.734 -6.36,-10.449 -1.94,-5.039 -1.94,-5.039 -17.05,-42.578 -5.63,-14.043 -6.89,-17.312 -8.11,-20.73 -1.62,-4.211 -1.62,-4.426 -2.32,-5.508 -0.54,-0.891 -1.26,-1.274 -3.71,-1.606 -1.59,-0.203 -2.1,-0.203 -8.3,-1.265 -0.7,-0.168 -1.41,-0.168 -1.95,-0.168 -1.78,0 -1.97,0.168 -3.89,5.984 -2.28,6.145 -3.89,10.141 -12.02,32.688 -8.49,23.269 -12.01,32.453 -15.03,39.511 -1.22,3.035 -1.58,3.223 -5.65,4.688 -1.05,0.351 -1.59,1.433 -1.59,2.844 v 3.269 c 0,1.785 0.72,2.332 2.99,2.332 0.56,0 0.56,0 8.69,-0.379 1.93,-0.168 5.13,-0.168 9.34,-0.168 8.33,0 13.47,0.168 18.76,0.547 h 2.09 c 1.81,0 2.5,-0.547 2.5,-2.332 v -3.269 c 0,-2.329 -0.17,-2.329 -4.94,-3.579 -5.14,-1.296 -7.09,-2.566 -7.09,-5.054 0,-0.903 0.19,-2.168 0.73,-3.586 0.87,-2.754 1.76,-5.41 2.46,-8.137 l 4.41,-14.234 c 5.48,-18.059 9.19,-29.426 9.55,-29.426 0.17,0 0.34,0.918 0.69,1.98 l 0.7,2.539 1.62,4.875 c 0.88,2.918 2.11,6.329 3.18,10.262 l 5.13,14.094 c 5.46,15.676 6.88,20.547 6.88,22.551 0,2.136 -2.82,4.136 -7.23,5.054 -2.13,0.539 -2.64,1.055 -2.64,2.661 v 3.269 c 0,1.621 0.69,2.332 2.08,2.332 0.56,0 1.08,0 1.98,-0.191 2.12,-0.188 9.36,-0.356 12.91,-0.356 3.21,0 7.3,0.168 11.02,0.547 h 1.58 c 1.42,0 1.98,-0.547 1.98,-2.332 v -3.269"
           style="fill:#b72021;fill-opacity:1;fill-rule:nonzero;stroke:none"
           id="path34" /><path
           d="m 1204.31,213.438 8.11,0.703 c 3.2,0.195 11.85,0.918 15.04,1.433 2.64,0.199 3.71,1.25 3.71,3.606 0,3.254 -1.23,7.246 -3.37,10.097 -2.12,2.918 -5.66,4.493 -10.41,4.493 -5.67,0 -11.32,-2.657 -14.49,-6.844 -2.84,-3.442 -4.94,-8.637 -4.94,-11.699 0,-1.457 0.68,-2.004 2.45,-2.004 z m -3,-8.868 c -6.56,0 -7.27,-0.515 -7.27,-6.64 0,-17.508 11.14,-30.332 26.35,-30.332 8.82,0 21.54,4.355 27.29,9.199 0.36,0.383 0.54,0.539 0.71,0.539 0.53,0 1.06,-0.727 1.06,-1.594 0,-2.715 -1.59,-14.637 -1.95,-15.906 -0.52,-0.922 -2.47,-2.055 -7.34,-4.035 -6.39,-2.512 -14.82,-4.141 -22.25,-4.141 -25.81,0 -43.66,17.742 -43.66,43.699 0,27.961 18.92,48.887 44.56,48.887 20.85,0 32.22,-11.91 32.22,-33.379 0,-4.844 -1.93,-6.297 -8.6,-6.297 h -41.12"
           style="fill:#b72021;fill-opacity:1;fill-rule:nonzero;stroke:none"
           id="path36" /><path
           d="m 1265.69,236.316 c 0,2.707 0.53,3.247 3.17,3.625 l 26.02,3.926 1.41,0.188 c 0.71,0.191 1.2,0.191 1.41,0.191 1.22,0 2.11,-1.25 2.11,-3.035 l -0.17,-7.981 c 0,-7.722 0.17,-8.992 1.59,-8.992 0.53,0 2.12,1.27 3.35,2.871 2.66,3.086 2.66,3.086 6.88,7.957 4.95,5.559 6.71,6.848 11.83,8.118 2.64,0.683 5.32,1.062 8.43,1.062 4.52,0 6.5,-1.25 6.32,-3.933 v -0.372 l -0.7,-12.636 c -0.2,-3.25 -0.88,-4.5 -2.48,-4.5 -0.35,0 -0.88,0.164 -1.57,0.332 -2.1,0.75 -6.12,1.101 -10.18,1.101 -6.53,0 -11.65,-1.804 -15.01,-5.058 -4.05,-4.121 -4.75,-7.766 -4.75,-25.606 v -8.113 l 0.35,-11.535 c 0.18,-5.93 0.53,-7.41 3,-8.684 1.4,-0.679 1.59,-0.679 9.22,-2.515 5.43,-1.25 5.61,-1.25 5.61,-3.657 v -2.539 c 0,-1.836 -0.89,-2.918 -2.31,-2.918 h -0.89 c -5.1,0.196 -19.25,0.547 -26.28,0.547 -5.68,0 -13.97,-0.195 -18.38,-0.547 h -1.24 c -1.41,0 -1.98,0.75 -1.98,2.356 v 2.945 c 0,2.375 0,2.375 5.51,4.184 5.47,1.797 6.37,2.683 6.72,6.504 0.19,4.492 0.34,12.769 0.34,24.683 v 5.981 c 0,9.011 -1.2,19.265 -3.04,24.168 -1.56,4.492 -4.19,6.113 -9.85,6.296 -3.91,0.2 -4.44,0.547 -4.44,2.5 v 3.086"
           style="fill:#b72021;fill-opacity:1;fill-rule:nonzero;stroke:none"
           id="path38" /><path
           d="m 1409.97,225.703 c -0.2,-2.898 -0.55,-3.269 -2.49,-3.269 h -2.85 c -1.75,0 -1.75,0 -3.49,4.675 -1.97,4.707 -7.44,7.414 -15.22,7.414 -8.47,0 -14.15,-4.679 -14.15,-11.718 0,-4.895 2.47,-8.117 9.37,-12.121 4.08,-2.305 4.08,-2.305 15.9,-7.746 11.48,-5.223 18.21,-14.04 18.21,-23.973 0,-16.406 -14.68,-27.305 -36.92,-27.305 -8.5,0 -17.36,1.785 -23.17,4.871 -2.48,1.086 -3.01,2.192 -2.83,4.946 l 1.09,12.261 c 0.18,2.16 1.06,3.059 2.98,3.059 h 3.02 c 1.94,0 2.12,0 3.17,-4.688 1.6,-6.164 9.37,-10.82 17.66,-10.82 9.03,0 15.42,4.871 15.42,11.902 0,5.422 -2.87,8.313 -12.58,12.805 -22.97,10.645 -28.61,16.809 -28.61,30.125 0,17.649 13.08,28.125 34.96,28.125 6.72,0 13.98,-1.25 18.22,-3.035 2.83,-1.106 3.54,-2 3.54,-4.172 v -0.516 l -1.23,-10.82"
           style="fill:#b72021;fill-opacity:1;fill-rule:nonzero;stroke:none"
           id="path40" /><path
           d="m 1465.59,270.508 c 0,-7.41 -6.21,-13.367 -13.98,-13.367 -7.6,0 -13.76,5.789 -13.76,13.203 0,7.691 5.81,12.949 14.46,12.949 7.79,0 13.28,-5.258 13.28,-12.785 z m -22.11,-61.399 c 0,21.274 -0.35,22.539 -7.58,23.391 -4.08,0.352 -4.95,0.918 -4.95,2.734 v 3.243 c 0,2.003 0.51,2.519 2.98,2.734 l 25.27,2.656 1.45,0.188 c 0.53,0.191 1.05,0.191 1.41,0.191 1.58,0 2.3,-1.25 2.3,-3.418 0,-0.348 0,-0.348 -0.17,-7.058 -0.2,-3.04 -0.38,-20.547 -0.38,-30.43 v -9.055 c 0,-10.808 0.18,-20.359 0.38,-24.683 0.35,-3.821 1.4,-4.856 6.52,-6.504 5.3,-1.621 5.44,-1.809 5.44,-4.184 v -2.945 c 0,-1.606 -0.51,-2.356 -1.89,-2.356 h -1.27 c -4.59,0.352 -12.52,0.547 -19.26,0.547 -6.71,0 -15.18,-0.195 -19.59,-0.547 h -1.27 c -1.59,0 -1.92,0.547 -1.92,2.356 v 2.945 c 0,2.375 0,2.375 5.46,4.184 5.49,1.797 6.37,2.683 6.72,6.504 0.18,4.707 0.35,12.957 0.35,24.683 v 14.824"
           style="fill:#b72021;fill-opacity:1;fill-rule:nonzero;stroke:none"
           id="path42" /><path
           d="m 1501.8,218.289 c -0.17,10.473 -0.17,10.637 -4.41,10.637 -0.7,0 -0.7,0 -3.18,-0.164 h -4.6 c -1.41,-0.188 -2.46,-0.188 -2.63,-0.188 -1.09,0 -1.77,0.535 -1.77,1.082 0,0.356 0.17,1.274 0.68,2.356 l 2.12,5.949 c 1.44,3.953 1.79,4.336 3.53,4.336 0.56,0 2.14,-0.195 4.26,-0.383 0.71,-0.168 1.43,-0.168 2.11,-0.168 3.19,0 4.42,1.086 4.42,3.774 0,0.886 -0.18,6.589 -0.53,11.816 -0.17,2.891 -0.17,5.594 -0.17,7.574 0,3.945 1.05,5.434 4.9,6.848 l 11.11,3.972 c 3.52,1.274 3.52,1.274 4.02,1.274 1.08,0 1.78,-1.274 1.78,-2.707 0,-1.106 -0.15,-3.086 -0.53,-5.242 -0.52,-4.504 -1.75,-19.68 -1.75,-23 0,-3.223 0.86,-3.758 6,-3.758 h 14.49 c 4.23,0 6.55,0.164 9.18,0.535 h 1.05 c 0.92,0 1.43,-0.535 1.43,-1.453 0,-1.066 -0.51,-2.902 -2.09,-8.313 -1.1,-3.789 -1.99,-4.492 -4.81,-4.492 -0.7,0 -0.7,0 -5.29,0.352 -1.24,0 -3.36,0.183 -6.71,0.351 -3.92,0.188 -5.13,0.188 -6.71,0.188 -5.68,0 -5.68,0 -5.68,-7.766 v -27.773 c 0,-14.422 0.37,-19.082 2.13,-22.539 1.61,-3.391 5.13,-5.227 10.61,-5.227 3.89,0 8.15,0.703 14.31,2.375 1.43,0.352 2.28,0.52 2.63,0.52 0.92,0 1.25,-0.52 1.25,-1.457 0,-2.539 -1.42,-11.067 -1.92,-11.797 -1.62,-1.836 -13.8,-4.141 -22.09,-4.141 -20.13,0 -27.67,5.957 -27.67,21.531 l 0.2,10.649 c 0.16,4.305 0.33,7.762 0.33,10.086 v 24.363"
           style="fill:#b72021;fill-opacity:1;fill-rule:nonzero;stroke:none"
           id="path44" /><path
           d="m 1655.12,239.023 c 0,-1.789 -0.38,-2.148 -1.94,-2.871 -3.73,-1.816 -4.1,-2.382 -8.16,-13.015 -1.59,-4.692 -3.36,-8.996 -5.13,-13.324 l -9.55,-23.985 c -3.71,-9.414 -7.23,-18.777 -10.94,-28.394 -8.65,-23.118 -9.53,-25.254 -14.3,-30.481 -4.09,-4.707 -11.59,-7.961 -18.64,-7.961 -14.15,0 -15.91,1.086 -15.91,10.102 0,1.836 0,3.25 0.18,4.168 l 0.17,3.269 c 0,1.953 0.53,2.657 1.74,2.657 0.57,0 0.92,0 1.41,-0.165 4.98,-1.457 9.03,-1.972 13.8,-1.972 9.49,0 15.98,5.058 18.63,14.773 0.38,1.274 0.73,2.336 1.24,3.086 0,0.168 0.19,0.356 0.19,0.356 0,0.347 -0.53,0.703 -1.05,1.05 -2.11,1.118 -2.3,1.465 -7.05,13.286 -5.94,14.421 -11.96,28.679 -17.97,42.918 -2.11,5.039 -4.77,11.367 -7.4,17.492 -1.97,4.324 -2.66,4.871 -6.74,6.14 -1.21,0.371 -1.58,0.887 -1.58,2.871 v 3.079 c 0,1.433 0.72,2.144 2.15,2.144 h 1.23 c 1.58,-0.191 17.46,-0.547 20.85,-0.547 4.69,0 13.13,0.168 16.13,0.547 h 1.6 c 1.59,0 2.47,-0.867 2.47,-2.144 v -3.079 c 0,-2.5 0,-2.5 -6.54,-4.14 -3.7,-0.918 -5.65,-2.871 -5.65,-5.227 0,-1.082 0.37,-2.547 1.1,-4.148 1.02,-2.891 2.08,-5.762 2.97,-8.867 l 5.65,-14.754 2.84,-7.231 c 1.21,-3.242 3.36,-8.66 4.77,-12.449 1.05,-3.059 1.41,-3.789 1.78,-3.789 1.05,0 16.26,48.691 16.26,52.129 0,2.519 -1.79,4.172 -5.13,4.891 -4.26,0.878 -4.61,1.085 -4.61,3.585 v 3.079 c 0,1.597 0.55,2.144 1.93,2.144 h 1.62 c 3.68,-0.379 8.28,-0.547 13.06,-0.547 3.89,0 7.46,0.168 10.45,0.356 0.67,0.191 1.42,0.191 1.74,0.191 1.59,0 2.33,-0.711 2.33,-2.144 v -3.079"
           style="fill:#b72021;fill-opacity:1;fill-rule:nonzero;stroke:none"
           id="path46" /><path
           d="m 1781.46,186.516 c -0.78,-3.926 -5.65,-9.219 -11.37,-9.817 -8.04,-0.195 -14.76,6.406 -15.16,11.953 -0.31,5.254 0.06,6.602 0.06,6.602 l 27.04,-0.899 c -0.07,-2.976 0.18,-4.492 -0.57,-7.839 z m 3.63,17.976 -1.02,-2.363 -29.45,0.793 -1.96,2.469 -1.94,-0.039 v -18.055 c -0.43,-8.242 7.96,-18.242 19.22,-18.203 10.53,0.562 15.65,10.535 16.35,19.812 l 1.14,15.625 -2.34,-0.039"
           style="fill:#231f20;fill-opacity:1;fill-rule:nonzero;stroke:none"
           id="path48" /><path
           d="m 1763.08,119.102 5.74,-11.485 1.25,0.723 -0.65,3.027 26.97,11.922 1.39,-1.687 2.32,1.113 -5.01,10.32 -1.61,-0.722 0.04,-3.172 -26.48,-11.575 -2.33,1.77 -1.63,-0.234"
           style="fill:#231f20;fill-opacity:1;fill-rule:nonzero;stroke:none"
           id="path50" /><path
           d="m 1771.84,131.172 v -1.27 l -7.71,-1.589 c -4.37,2.976 -6.43,6.121 -7.72,11.277 -2.52,10.027 0,19.355 13.11,23.008 13.79,4.304 19.52,-4.649 22.49,-15.086 0.85,-3.078 0.9,-5.305 1.41,-8.657 l -7.3,-2.031 -1,1.489 c 2.87,2.585 3.78,6.453 2.83,10.156 -1.41,5.672 -7.94,8.902 -13.28,6.746 l 3.86,-16.731 2.97,-1.226 0.53,-1.613 -7.81,-2 -0.49,1.621 1.13,1.746 -4.25,16.816 c -6.5,-0.383 -11.31,-7.082 -9.92,-13.43 0.92,-4.058 5.79,-8.668 11.15,-9.226"
           style="fill:#231f20;fill-opacity:1;fill-rule:nonzero;stroke:none"
           id="path52" /><path
           d="m 1766.09,212.207 c -0.93,2.031 0,4.492 2.11,5.441 2.03,0.829 4.47,0.262 5.29,-1.503 1.07,-2.09 0,-4.497 -1.94,-5.969 -2.03,-0.918 -4.48,0 -5.46,2.031"
           style="fill:#231f20;fill-opacity:1;fill-rule:nonzero;stroke:none"
           id="path54" /><path
           d="m 1789.2,105.188 c -0.94,2.097 -0.1,4.492 1.39,5.425 1.85,0.957 4.54,-0.015 6.1,-2.136 0.88,-2.032 -0.06,-4.539 -2.08,-5.372 -2.07,-0.976 -4.47,0.02 -5.41,2.083"
           style="fill:#231f20;fill-opacity:1;fill-rule:nonzero;stroke:none"
           id="path56" /><path
           d="m 1993.41,26.3008 c -0.93,2.1055 0.08,4.4883 2.2,5.4297 2.17,0.9453 4.58,0 5.44,-2.0039 0.8,-2.0899 0.01,-4.5235 -2.1,-5.5391 -2.04,-0.9258 -4.47,0.0703 -5.54,2.1133"
           style="fill:#231f20;fill-opacity:1;fill-rule:nonzero;stroke:none"
           id="path58" /><path
           d="m 1774.46,279.094 -5.87,-11.489 1.38,-0.476 2.46,2.101 26.04,-13.417 -0.52,-2.168 2.34,-0.93 4.72,10.078 -1.7,0.801 -2.39,-1.731 -24.92,13.371 -0.27,2.704 -1.27,1.156"
           style="fill:#231f20;fill-opacity:1;fill-rule:nonzero;stroke:none"
           id="path60" /><path
           d="m 1790.66,228.645 -1.62,0.496 -1.55,-1.172 -19.49,4.179 27.88,10.606 2.55,6.434 -2.05,0.492 -1.88,-0.832 -26.22,10.449 -0.19,2.48 -1.9,0.606 -3.29,-9.043 2.4,-0.879 2.25,1.172 18.62,-7.266 -29.77,-11.445 -1.34,-4.473 31.13,-6.863 1.33,-1.477 1.15,-0.539 1.99,7.075"
           style="fill:#231f20;fill-opacity:1;fill-rule:nonzero;stroke:none"
           id="path62" /><path
           d="m 1838.92,47.8984 c -1.14,-1.1601 -5.53,-5.3007 -10.04,-5.3984 -1.93,-0.0195 -3.64,0.5859 -5.23,2.1289 l -0.45,0.5078 c -1.5,1.086 -2.18,2.4219 -2.29,4.3672 -0.03,3.7774 3.19,8.8086 5.63,11.3867 2.01,2.0391 9.36,9.7617 15.15,4.5391 l 0.86,-0.7813 c 5.6,-5.5 -1.97,-15 -3.63,-16.75 z m 11.37,6.6797 v 0 c 0.26,4.9024 -0.73,9.1055 -3.92,12.3946 l -0.47,0.5468 -0.21,0.2149 -0.22,0.1367 -0.15,0.1562 -0.47,0.3711 c -3.48,3.0274 -7.7,4.0118 -12.62,3.4766 -5.22,-0.5352 -10.17,-3.2891 -13.36,-7.9492 -5.62,-7.0781 -5.56,-16.211 1.1,-22.8125 l 0.18,-0.1367 h -0.03 l -0.09,0.0703 0.12,-0.0703 c 7.13,-5.9375 16.34,-5.6446 23.24,0.0976 4.09,3.3985 6.59,8.3594 6.9,13.5039"
           style="fill:#231f20;fill-opacity:1;fill-rule:nonzero;stroke:none"
           id="path64" /><path
           d="m 1892.72,5.50781 12.11,-2.66406 0.13,1.38672 -2.66,2 5.69,28.53513 2.71,0.1172 0.17,2.4805 -11.11,1.9844 -0.46,-1.8868 2.77,-2.0312 -5.61,-27.57032 -2.96,-0.82032 -0.78,-1.53125"
           style="fill:#231f20;fill-opacity:1;fill-rule:nonzero;stroke:none"
           id="path66" /><path
           d="m 1985.04,18.6133 1.25,-0.0586 2.48,-7.5469 c -3.26,-4.19139 -6.28,-6.1953 -11.53,-7.31639 -10.17,-2.19922 -19.38,0.09765 -22.39,12.87109 -4.42,13.8984 4.51,19.4219 14.95,22.4688 3.19,0.9023 5.36,0.9296 8.78,1.3671 l 1.92,-7.5156 -1.5,-0.957 c -2.5,3.0351 -6.36,3.9805 -10.17,3.1797 -5.59,-1.4727 -9.11,-8.1133 -7.16,-13.5821 l 16.8,3.8282 1.37,3.039 1.65,0.4258 1.85,-7.8203 -1.72,-0.3828 -1.71,1.0742 -16.57,-3.9219 c 0.3,-6.3125 6.7,-11.05466 13.19,-9.73826 4.18,0.70313 8.89,5.26176 8.51,10.58596"
           style="fill:#231f20;fill-opacity:1;fill-rule:nonzero;stroke:none"
           id="path68" /><path
           d="m 1823.42,87.8047 -1.33,-1.1172 0.21,-1.9805 -14.33,-14.5507 6.36,29.0625 -4.03,5.5472 -1.41,-1.375 -0.36,-2.082 -23.4,-16.2426 -2.25,1.1719 -1.42,-1.2383 6.03,-7.832 2.05,1.6601 0.23,2.4883 16.12,11.543 -6.58,-30.8946 3.12,-3.5273 22.81,22.6953 1.94,0.3594 1.05,0.6758 -4.81,5.6367"
           style="fill:#231f20;fill-opacity:1;fill-rule:nonzero;stroke:none"
           id="path70" /><path
           d="m 1939.1,34.5508 -0.11,-1.7188 1.71,-1.1601 1.99,-20.0625 -18.83,24.1328 -6.51,0.6445 0.2,-1.9726 1.24,-1.6797 -2.26,-28.56252 -2.39,-1.09766 -0.02,-1.91406 9.44,-0.125 0.17,2.65625 -1.65,1.77734 1.27,19.68755 L 1943.14,0 l 4.64,0.0390625 -2.56,31.4922375 1.06,1.789 0.12,1.2695 -7.3,-0.039"
           style="fill:#231f20;fill-opacity:1;fill-rule:nonzero;stroke:none"
           id="path72" /><path
           d="m 1840.07,27.5781 0.89,1.9336 2.74,-0.2148 18.79,21.4922 -0.91,2.2695 1.5,1.7539 5.84,-2.4766 -0.94,-21.3515 12.03,14.0156 -0.58,1.1133 1.02,0.7422 8.46,-3.418 -0.13,-2.168 -1.47,-0.7109 -3.8,-29.0352 2.07,-2.39059 -0.56,-1.72265 -9.95,4.39844 0.6,2.0977 1.79,0.4296 2.75,22.8985 -17.64,-21.043 -3.53,1.1641 2.42,26.4062 -14.3,-17.1406 1.26,-2.4023 -0.54,-1.2813 -7.81,4.6406"
           style="fill:#231f20;fill-opacity:1;fill-rule:nonzero;stroke:none"
           id="path74" /><path
           d="m 2063.69,65.1758 1.15,0.5547 5.11,-6.0352 c -0.59,-5.3398 -2.35,-8.543 -6.34,-12.1562 -7.86,-7.4102 -17.2,-9.5782 -26.49,0.2656 -9.83,10.4844 -4.72,19.7734 3.2,27.2461 2.29,2.2851 4.21,3.4062 7.02,5.457 l 5.31,-5.625 -0.76,-1.5625 c -3.82,1.3867 -7.61,0.3399 -10.48,-2.2656 -4.43,-3.8477 -4.29,-11.2188 0.19,-14.9219 l 13.14,11.2305 -0.36,3.2812 1.12,1.1797 5.48,-5.4179 -1.25,-1.1719 -2.08,0.0195 -13.21,-12.2734 c 3.31,-5.586 11.45,-6.7969 16.42,-2.0235 3.2,2.7266 4.79,9.1993 2.83,14.2188"
           style="fill:#231f20;fill-opacity:1;fill-rule:nonzero;stroke:none"
           id="path76" /><path
           d="m 2104.98,242.012 v 1.308 l 7.77,1.668 c 4.35,-3.23 6.26,-6.218 7.45,-11.425 2.54,-10.125 -0.22,-19.442 -13.06,-22.911 -13.46,-4.175 -19.61,4.739 -22.38,15.2 -0.9,3.093 -0.96,5.32 -1.49,8.738 l 7.41,1.98 0.97,-1.519 c -2.92,-2.5 -3.9,-6.399 -2.94,-10.188 1.34,-5.703 7.79,-8.972 13.27,-6.875 l -3.74,16.809 -3.12,1.277 -0.42,1.66 7.97,2.149 0.33,-1.426 -1.12,-2.168 4.21,-16.902 c 6.52,0.191 11.41,6.968 10.06,13.418 -0.84,4.109 -5.79,8.601 -11.17,9.207"
           style="fill:#231f20;fill-opacity:1;fill-rule:nonzero;stroke:none"
           id="path78" /><path
           d="m 2079.78,248.691 c -3.32,6.934 -5.2,17.122 3.85,19.422 7.51,2.016 11.98,-5.164 13.03,-10.925 z m 29.44,14.961 -8.72,-4.355 c -0.02,6.699 1.74,14.211 1.01,18.008 -1.26,5.449 -2.96,6.906 -7.33,10.527 l -1.27,-1.008 c 1.27,-2.207 1.79,-2.195 2.64,-5.476 1.14,-4.637 1.02,-7.625 -0.13,-12.278 -2.51,4.746 -8.06,6.66 -14,4.934 -7.33,-1.953 -11.54,-9.578 -8.25,-16.504 l 7.3,-16.953 2.48,1.086 0.62,1.59 26.15,13.457 1.86,-1.231 1.41,0.457 -3.77,7.746"
           style="fill:#231f20;fill-opacity:1;fill-rule:nonzero;stroke:none"
           id="path80" /><path
           d="m 2090.23,173.84 0.13,27.129 -2.24,7.371 9.3,-5.899 c -0.94,-0.234 -1.73,-0.546 -2.3,-1.003 -0.97,-0.989 -0.97,-5.04 -1.13,-11.125 l 29.82,0.402 0.58,1.308 1.53,-0.07 0.06,-10.683 -0.87,0.019 -1.32,2.512 -29.58,-0.5 c 0.04,-3.223 -0.43,-8.02 0.48,-8.731 0.33,-0.332 0.92,-0.683 1.7,-0.949 l -7.81,-5.176 1.65,5.395"
           style="fill:#231f20;fill-opacity:1;fill-rule:nonzero;stroke:none"
           id="path82" /><path
           d="m 2121.49,148.086 2.3,12.207 -1.38,0.105 -2.1,-2.468 -28.77,5.09 -0.27,2.128 -2.46,0.204 -1.52,-11.211 1.81,-0.203 1.8,2.214 28.04,-4.824 0.97,-2.59 1.58,-0.652"
           style="fill:#231f20;fill-opacity:1;fill-rule:nonzero;stroke:none"
           id="path84" /><path
           d="m 2108.78,141.73 1.25,1.336 6.78,-3.117 c 1.4,-5.523 1.16,-9.461 -1.24,-14.519 -4.85,-9.461 -11.92,-15.789 -25.34,-10.274 -13.04,5.879 -11.59,16.641 -7.22,26.707 1.35,3.098 2.67,4.785 4.35,7.707 l 7.46,-2.851 -0.57,-2.012 c -3.93,-0.203 -6.76,-1.992 -8.44,-5.477 -2.8,-5.585 1.55,-10.585 6.71,-14.621 5.14,-3.894 16.35,-2.214 19.27,3.582 1.81,3.899 0.76,9.68 -3.01,13.539"
           style="fill:#231f20;fill-opacity:1;fill-rule:nonzero;stroke:none"
           id="path86" /><path
           d="m 2098.91,90.1758 6.2,10.9452 -1.38,0.039 -2.61,-1.5116 -26.57,14.5626 0.51,2.09 -2.26,0.965 -4.16,-10.02 1.69,-0.859 2.5,1.535 24.73,-13.8986 0.23,-2.6757 1.12,-1.1719"
           style="fill:#231f20;fill-opacity:1;fill-rule:nonzero;stroke:none"
           id="path88" /><path
           d="m 2078.33,62.6172 17.28,19.7773 -3.71,9.5196 -2.45,-2.4883 c 0,0 0.85,-3.9649 0.52,-6.3594 -0.74,-4.7851 -7.32,-10.5391 -7.32,-10.5391 l -22.41,18.586 0.96,2.3828 -2.03,1.3672 -7.72,-9.7656 2.08,-1.4375 2.5,1.1367 21.78,-18.2422 -0.44,-2.5625 0.96,-1.375"
           style="fill:#231f20;fill-opacity:1;fill-rule:nonzero;stroke:none"
           id="path90" /><path
           d="m 2018.31,17.0117 9.34,5.0664 -0.95,1.1446 -2.46,0.3711 -6.66,13.5234 c 0,0 5.56,3.9961 9.09,4.7578 1.78,0.4102 4.57,0.3828 4.57,0.3828 l -3.38,6.8438 c 0,0 -1.62,-2.0899 -2.81,-3.2344 -2.66,-2.5547 -9.42,-4.8711 -9.42,-4.8711 l -4.73,9.8828 c 0,0 6.61,4.707 10.87,5.9688 1.37,0.4179 4.04,0.9257 4.04,0.9257 0,0 0.12,1.8672 0.5,2.9297 0.62,1.836 2.34,4.4532 2.34,4.4532 l -27.41,-16.0352 0.58,-2.0195 2.72,0.0273 13.21,-26.25 -0.63,-2.2656 1.19,-1.6016"
           style="fill:#231f20;fill-opacity:1;fill-rule:nonzero;stroke:none"
           id="path92" /><path
           d="m 2039.39,283.176 -81.14,12.762 c 1.01,-2.469 1.64,-5.293 1.64,-8.118 0,-11.609 -9.35,-20.984 -21.06,-20.984 -0.17,0 -0.46,0.027 -0.7,0.027 v 0 c -0.03,0 -0.03,0 -0.03,0 -0.25,0 -0.39,-0.027 -0.64,-0.027 -11.55,0 -20.5,9.375 -20.5,20.984 0,2.825 0.59,5.649 1.57,8.118 l -80.73,-12.762 c -2.34,13.758 -3.5,26.519 -3.5,37.929 0,4.122 0.21,7.926 0.49,11.817 h 48.25 c 13.28,0 14.39,-1.379 15,-2.004 0.89,-0.82 1.11,-3.027 -0.12,-3.906 -2.88,-1.809 -7.31,-3.946 -7.31,-10.449 0,-0.176 0,-0.235 0,-0.352 0,-5.227 4.61,-7.18 15.61,-11.543 3.16,-1.211 14.25,-5.598 14.25,-5.598 l 2.31,1.321 c 3.86,1.98 12.09,7.519 12.09,16.98 0,1.223 -0.15,2.192 -0.3,3.027 -0.31,1.282 -0.83,2.407 -1.36,3.34 0,0.032 0,0.039 0,0.078 -1.75,3.262 -3.86,4.243 -3.86,4.243 0,0 1.04,4.492 7.53,5.066 l 0.01,-0.051 c 0.28,0.071 0.47,0.129 0.73,0.129 0.09,0 0.46,0 0.51,0 3.25,0 5.43,-2.695 5.43,-5.879 0,-3.957 -2.53,-4.765 -2.53,-9.953 -0.07,-9.461 8.18,-15 12,-16.98 l 2.5,-1.321 c 0,0 11.32,4.387 14.41,5.598 11.14,4.363 15.62,6.316 15.62,11.543 0,0.117 0,0.176 0,0.352 0,6.503 -4.34,8.64 -7.17,10.449 -1.43,0.879 -1.18,3.086 -0.17,3.906 0.62,0.625 1.77,2.004 14.83,2.004 h 49.42 c 0.3,-3.891 0.54,-7.695 0.54,-11.817 0,-11.41 -1.26,-24.171 -3.62,-37.929 z m -7.29,-32.309 v 0 l -68.49,31.321 c 24.08,-3.731 59.05,-9.227 73.31,-11.446 -1.37,-6.523 -2.97,-12.976 -4.82,-19.875 z m -75.04,20.434 43.36,-20.434 h -29.78 z m 61.58,-62.696 c -11.21,0 -43.54,0 -52.01,0 0,6.375 0,21.075 0,29.559 h 61.9 c -2.92,-9.519 -6.17,-19.426 -9.89,-29.559 z m -74.04,42.262 v 16.086 l 10.71,-16.086 z m -23.46,0 10.66,16.086 v -16.086 z m 90.78,-59.812 c -3.39,-8.399 -6.93,-16.516 -10.62,-24.7 h -41.04 -6.36 V 78.1836 c -4.69,-6.7852 -8.82,-12.2383 -12.25,-15.9648 -0.95,-1.0079 -2.51,-2.5782 -3.52,-3.3321 -0.9,0.7539 -2.32,2.3242 -3.35,3.3321 -3.46,3.7265 -7.62,9.1796 -12.31,15.9648 v 88.1714 h -6.01 -40.79 c -3.69,8.184 -7.24,16.301 -10.48,24.7 -0.64,1.64 -1.33,3.23 -1.95,4.836 h 59.23 v 42.273 h 15.63 0.03 15.77 v -42.273 h 59.93 c -0.59,-1.606 -1.25,-3.196 -1.91,-4.836 z m -45.29,-92.8714 c 0,20.5074 0,48.7184 0,55.4104 5.74,0 19.35,0 29.04,0 -9.78,-20.664 -19.79,-39.778 -29.04,-55.4104 z m -56.44,0 c -9.29,15.6324 -19.37,34.7464 -29.06,55.4104 9.65,0 23.23,0 29.06,0 0,-6.692 0,-34.903 0,-55.4104 z m -61.42,139.9804 h 61.42 c 0,-8.484 0,-23.184 0,-29.559 -8.46,0 -40.51,0 -51.72,0 -3.75,10.133 -6.83,20.04 -9.7,29.559 z m 70.82,33.137 -13.53,-20.434 h -29.46 z m -74.49,-20.434 c -1.86,6.899 -3.45,13.352 -4.82,19.875 14.11,2.219 48.75,7.715 72.91,11.446 z m 93,100.422 h 0.03 c 48.35,0 96.81,0 101.26,0 0.51,-1.894 0.98,-3.945 1.32,-6.008 h -47.66 c -20.19,0 -28.84,-4.91 -28.84,-16.695 0,-3.637 2.02,-7.563 5.3,-10.332 -2.32,-0.93 -11.99,-4.387 -13.4,-5.012 -1.15,1.301 -3.32,3.36 -3.63,6.582 0.95,1.563 3.05,4.778 3.05,9.422 0,7.246 -4.99,14.594 -17.68,14.953 v 0 0 0 0 c -5.86,-0.222 -9.56,-1.941 -12.53,-4.304 -0.19,-0.215 -0.33,-0.364 -0.52,-0.579 -5.27,-1.457 -8.59,-5.105 -8.59,-9.804 v -5.032 c 0,0 2.32,-0.242 3.65,-0.742 1.7,-0.75 2.35,-1.629 2.88,-2.351 1.44,-2.071 0.22,-6.699 -2.7,-8.145 -1.36,0.625 -11.06,4.082 -13.42,5.012 3.32,2.769 5.46,6.695 5.46,10.332 0,11.785 -8.73,16.695 -29.04,16.695 h -46.59 c 0.44,2.063 0.8,4.114 1.36,6.008 4.58,0 52.37,0 100.29,0 z m -64.77,42.41 c 0,3.899 1.26,8.996 12.53,8.996 9.16,0 12.86,-1.394 14.42,-2.539 0.76,-0.476 1.78,-1.25 1.78,-5.136 0,0 0,-20.207 0.01,-30.977 h -28.74 c 0,10.508 0,29.656 0,29.656 z m 51.13,35.239 c 0,-1.426 0,-2.891 0,-4.27 -7.5,-2.273 -13.81,-6.848 -18.08,-13.301 -3.48,2.11 -7.81,3.074 -12.24,3.528 8.63,7.07 19.33,11.863 30.32,14.043 z m -8.22,24.824 c 5.07,0 18.18,0 18.18,0 0,0 0,12.976 0,18.172 1.5,0 2.65,0 3.68,0 h 0.03 c 1.22,0 2.38,0 3.92,0 0,-5.196 0,-18.172 0,-18.172 0,0 13.16,0 18.47,0 0,-3.164 0,-4.797 0,-8.059 -5.31,0 -18.47,0 -18.47,0 0,0 0,-13.183 0,-18.469 -1.54,0 -2.7,0 -3.92,0 h -0.03 c -1.03,0 -2.18,0 -3.68,0 0,5.286 0,18.469 0,18.469 0,0 -13.11,0 -18.18,0 0,3.262 0,4.895 0,8.059 z m 45.75,-58.742 v -30.977 h -47.21 l -0.03,30.977 c 0,8.898 5.89,19.168 23.35,19.168 v 0 c 0,0 0,0 0.03,0 v 0 0 c 17.77,0 23.86,-10.27 23.86,-19.168 z m 20.63,19.875 c -4.44,-0.454 -8.69,-1.418 -12.26,-3.528 -4.17,6.453 -10.48,11.028 -18.47,13.301 0,1.379 0,2.844 0,4.27 11.42,-2.18 22.15,-6.973 30.73,-14.043 z m 21.11,-21.196 c 0,0 0,-19.148 0,-29.656 h -29.04 c 0,10.77 0,30.977 0,30.977 0,3.886 1.05,4.66 1.72,5.136 1.58,1.145 5.38,2.539 14.56,2.539 11.41,0 12.76,-5.097 12.76,-8.996 z m 46.55,-34.019 -1.55,4.363 h -32.23 v 29.656 c 0,8.203 -4.13,16.84 -15.08,20.199 -7.93,9.598 -18.8,17.586 -31.04,22.704 v 27.058 c 0,0 -13.16,0 -18.49,0 0,5.278 0,18.235 0,18.235 h -13.76 -0.03 -13.64 c 0,0 0,-12.957 0,-18.235 -4.97,0 -18.11,0 -18.11,0 v -27.058 c -12.21,-5.118 -23.24,-13.106 -30.9,-22.704 -10.77,-3.359 -14.93,-11.996 -14.93,-20.199 v -29.656 h -32.13 l -1.38,-4.363 c -3.88,-11.821 -5.6,-24.758 -5.6,-38.879 0,-43.653 16.14,-94.738 31.93,-134.531 23.97,-60.184 55.64,-114.6684 72.12,-132.813 3.93,-3.9257 7.09,-7.3828 12.32,-7.5976 0.07,-0.0469 0.23,0 0.32,0 0,0 0,0 0.03,0 v 0 c 0.16,0 0.24,-0.0469 0.37,0 5.38,0.2148 8.58,3.6719 12.43,7.5976 16.9,18.1446 48.82,72.629 72.8,132.813 15.93,39.793 32.02,90.878 32.02,134.531 0,14.121 -1.5,27.058 -5.47,38.879"
           style="fill:#231f20;fill-opacity:1;fill-rule:nonzero;stroke:none"
           id="path94" /></g></g><g
       transform="translate(-4.6538694,89.234819)"
       id="ru_logo_nl" style="visibility:hidden"><g
         id="g970"
         transform="translate(-2.4326306,-89.234819)"><g
           transform="scale(0.1)"
           id="g972"><path
             id="path974"
             style="fill:#231f20;fill-opacity:1;fill-rule:nonzero;stroke:none"
             d="m 1923.18,186.516 c -0.78,-3.926 -5.64,-9.219 -11.36,-9.817 -8.04,-0.195 -14.76,6.406 -15.16,11.953 -0.3,5.254 0.07,6.602 0.07,6.602 l 27.02,-0.899 c -0.06,-2.976 0.19,-4.492 -0.57,-7.839 z m 3.64,17.976 -1.02,-2.363 -29.44,0.793 -1.97,2.469 -1.94,-0.039 v -18.055 c -0.43,-8.242 7.96,-18.242 19.21,-18.203 10.55,0.566 15.66,10.535 16.37,19.812 l 1.13,15.625 -2.34,-0.039" /><path
             id="path976"
             style="fill:#231f20;fill-opacity:1;fill-rule:nonzero;stroke:none"
             d="m 1904.8,119.102 5.75,-11.485 1.25,0.723 -0.65,3.027 26.96,11.922 1.39,-1.687 2.33,1.113 -5.01,10.32 -1.62,-0.719 0.04,-3.175 -26.47,-11.571 -2.33,1.766 -1.64,-0.234" /><path
             id="path978"
             style="fill:#231f20;fill-opacity:1;fill-rule:nonzero;stroke:none"
             d="m 1913.57,131.172 v -1.27 l -7.71,-1.589 c -4.37,2.976 -6.43,6.121 -7.72,11.277 -2.52,10.027 0,19.355 13.11,23.008 13.79,4.308 19.51,-4.649 22.48,-15.086 0.85,-3.078 0.91,-5.305 1.42,-8.653 l -7.3,-2.031 -1,1.485 c 2.88,2.585 3.77,6.453 2.84,10.156 -1.43,5.672 -7.95,8.902 -13.28,6.746 l 3.84,-16.727 2.97,-1.23 0.53,-1.613 -7.79,-2 -0.51,1.621 1.13,1.746 -4.24,16.816 c -6.5,-0.379 -11.31,-7.082 -9.92,-13.426 0.92,-4.062 5.78,-8.672 11.15,-9.23" /><path
             id="path980"
             style="fill:#231f20;fill-opacity:1;fill-rule:nonzero;stroke:none"
             d="m 1907.81,212.207 c -0.92,2.031 0,4.492 2.11,5.441 2.03,0.829 4.47,0.262 5.29,-1.503 1.08,-2.09 0,-4.493 -1.93,-5.969 -2.03,-0.918 -4.47,0 -5.47,2.031" /><path
             id="path982"
             style="fill:#231f20;fill-opacity:1;fill-rule:nonzero;stroke:none"
             d="m 1930.94,105.188 c -0.96,2.097 -0.12,4.492 1.38,5.429 1.84,0.957 4.53,-0.019 6.09,-2.14 0.89,-2.032 -0.06,-4.539 -2.07,-5.372 -2.07,-0.976 -4.47,0.02 -5.4,2.083" /><path
             id="path984"
             style="fill:#231f20;fill-opacity:1;fill-rule:nonzero;stroke:none"
             d="m 2135.15,26.3008 c -0.93,2.1094 0.07,4.4883 2.19,5.4297 2.17,0.9453 4.58,0 5.44,-2.0039 0.8,-2.0899 0.01,-4.5235 -2.1,-5.5352 -2.04,-0.9297 -4.47,0.0664 -5.53,2.1094" /><path
             id="path986"
             style="fill:#231f20;fill-opacity:1;fill-rule:nonzero;stroke:none"
             d="m 1916.19,279.094 -5.88,-11.485 1.39,-0.48 2.46,2.101 26.03,-13.417 -0.51,-2.168 2.33,-0.93 4.73,10.078 -1.71,0.801 -2.38,-1.727 -24.92,13.367 -0.27,2.707 -1.27,1.153" /><path
             id="path988"
             style="fill:#231f20;fill-opacity:1;fill-rule:nonzero;stroke:none"
             d="m 1932.38,228.645 -1.62,0.496 -1.54,-1.172 -19.49,4.179 27.88,10.606 2.55,6.437 -2.06,0.489 -1.88,-0.832 -26.22,10.449 -0.18,2.48 -1.91,0.606 -3.28,-9.043 2.4,-0.879 2.25,1.172 18.61,-7.266 -29.76,-11.445 -1.33,-4.473 31.11,-6.863 1.35,-1.477 1.13,-0.535 1.99,7.071" /><path
             id="path990"
             style="fill:#231f20;fill-opacity:1;fill-rule:nonzero;stroke:none"
             d="m 1980.64,47.9023 c -1.14,-1.164 -5.52,-5.3046 -10.04,-5.4023 -1.93,-0.0195 -3.64,0.5859 -5.23,2.1289 l -0.45,0.5078 c -1.49,1.086 -2.18,2.4219 -2.28,4.3672 -0.03,3.7774 3.18,8.8086 5.62,11.3867 2.01,2.0391 9.37,9.7657 15.16,4.5391 l 0.86,-0.7813 c 5.59,-5.4961 -1.98,-15 -3.64,-16.7461 z m 11.37,6.6758 v 0 c 0.26,4.9063 -0.73,9.1055 -3.92,12.3946 l -0.46,0.5468 -0.22,0.2149 -0.21,0.1367 -0.16,0.1562 -0.47,0.3711 c -3.48,3.0274 -7.69,4.0118 -12.62,3.4766 -5.22,-0.5352 -10.16,-3.2891 -13.36,-7.9492 -5.62,-7.0781 -5.56,-16.211 1.1,-22.8125 l 0.18,-0.1367 h -0.03 l -0.08,0.0703 0.11,-0.0703 c 7.13,-5.9375 16.34,-5.6446 23.25,0.0976 4.08,3.3985 6.59,8.3594 6.89,13.5039" /><path
             id="path992"
             style="fill:#231f20;fill-opacity:1;fill-rule:nonzero;stroke:none"
             d="m 2034.45,5.50781 12.11,-2.66406 0.13,1.38672 -2.66,2 5.7,28.53513 2.7,0.1172 0.18,2.4805 -11.12,1.9844 -0.46,-1.8868 2.78,-2.0312 -5.62,-27.56642 -2.96,-0.82422 -0.78,-1.53125" /><path
             id="path994"
             style="fill:#231f20;fill-opacity:1;fill-rule:nonzero;stroke:none"
             d="m 2126.78,18.6133 1.25,-0.0586 2.48,-7.5469 c -3.26,-4.19139 -6.28,-6.19139 -11.54,-7.31639 -10.16,-2.19922 -19.38,0.09765 -22.39,12.87109 -4.41,13.8984 4.51,19.4258 14.95,22.4727 3.2,0.8984 5.36,0.9257 8.78,1.3671 l 1.93,-7.5195 -1.51,-0.957 c -2.5,3.0351 -6.36,3.9844 -10.16,3.1836 -5.6,-1.4766 -9.12,-8.1172 -7.16,-13.586 l 16.79,3.8282 1.37,3.039 1.65,0.4297 1.86,-7.8242 -1.73,-0.3789 -1.71,1.0742 -16.56,-3.9258 c 0.29,-6.3125 6.7,-11.05466 13.18,-9.73826 4.18,0.70313 8.9,5.26176 8.52,10.58596" /><path
             id="path996"
             style="fill:#231f20;fill-opacity:1;fill-rule:nonzero;stroke:none"
             d="m 1965.15,87.8047 -1.33,-1.1133 0.2,-1.9844 -14.32,-14.5507 6.35,29.0625 -4.03,5.5472 -1.41,-1.375 -0.36,-2.082 -23.4,-16.2387 -2.24,1.1719 -1.43,-1.2422 6.04,-7.832 2.05,1.6601 0.23,2.4922 16.12,11.543 -6.59,-30.8985 3.12,-3.5273 22.81,22.6953 1.95,0.3594 1.04,0.6758 -4.8,5.6367" /><path
             id="path998"
             style="fill:#231f20;fill-opacity:1;fill-rule:nonzero;stroke:none"
             d="m 2080.83,34.5508 -0.11,-1.7188 1.71,-1.1601 1.99,-20.0586 -18.83,24.1289 -6.51,0.6445 0.21,-1.9726 1.24,-1.6797 -2.27,-28.56252 -2.39,-1.09375 -0.02,-1.91797 9.44,-0.125 0.18,2.65625 -1.65,1.77734 1.27,19.68755 L 2084.87,0 l 4.64,0.0390625 -2.56,31.4961375 1.07,1.7851 0.11,1.2695 -7.3,-0.039" /><path
             id="path1000"
             style="fill:#231f20;fill-opacity:1;fill-rule:nonzero;stroke:none"
             d="m 1981.8,27.5781 0.88,1.9336 2.74,-0.2148 18.81,21.4922 -0.92,2.2695 1.5,1.7578 5.83,-2.4805 -0.93,-21.3476 12.04,14.0117 -0.59,1.1133 1.03,0.7422 8.45,-3.418 -0.12,-2.168 -1.48,-0.7109 -3.8,-29.0352 2.07,-2.39059 -0.55,-1.72265 -9.95,4.39844 0.59,2.0977 1.79,0.4296 2.75,22.9024 -17.64,-21.0469 -3.54,1.1641 2.42,26.4062 -14.29,-17.1406 1.26,-2.4023 -0.55,-1.2774 -7.8,4.6367" /><path
             id="path1002"
             style="fill:#231f20;fill-opacity:1;fill-rule:nonzero;stroke:none"
             d="m 2205.42,65.1758 1.15,0.5586 5.11,-6.0352 c -0.59,-5.3437 -2.34,-8.5469 -6.34,-12.1601 -7.86,-7.4102 -17.2,-9.5782 -26.48,0.2656 -9.84,10.4844 -4.73,19.7734 3.19,27.2461 2.29,2.2851 4.21,3.4062 7.02,5.457 l 5.31,-5.625 -0.76,-1.5625 c -3.82,1.3867 -7.61,0.3399 -10.48,-2.2656 -4.43,-3.8477 -4.28,-11.2188 0.19,-14.9219 l 13.14,11.2305 -0.36,3.2812 1.13,1.1836 5.47,-5.4218 -1.25,-1.1719 -2.08,0.0195 -13.21,-12.2734 c 3.31,-5.586 11.46,-6.7969 16.43,-2.0235 3.19,2.7266 4.78,9.1993 2.82,14.2188" /><path
             id="path1004"
             style="fill:#231f20;fill-opacity:1;fill-rule:nonzero;stroke:none"
             d="m 2246.72,242.012 v 1.308 l 7.76,1.672 c 4.36,-3.234 6.26,-6.222 7.45,-11.426 2.54,-10.128 -0.22,-19.445 -13.05,-22.91 -13.47,-4.179 -19.61,4.735 -22.39,15.196 -0.9,3.093 -0.95,5.32 -1.49,8.738 l 7.41,1.984 0.97,-1.523 c -2.92,-2.5 -3.9,-6.399 -2.94,-10.188 1.35,-5.703 7.79,-8.972 13.27,-6.875 l -3.74,16.809 -3.12,1.277 -0.42,1.66 7.97,2.149 0.34,-1.426 -1.13,-2.168 4.21,-16.902 c 6.52,0.191 11.42,6.972 10.06,13.418 -0.84,4.109 -5.79,8.601 -11.16,9.207" /><path
             id="path1006"
             style="fill:#231f20;fill-opacity:1;fill-rule:nonzero;stroke:none"
             d="m 2221.51,248.691 c -3.32,6.934 -5.19,17.122 3.85,19.426 7.51,2.012 11.98,-5.168 13.04,-10.929 z m 29.45,14.961 -8.72,-4.355 c -0.02,6.699 1.73,14.211 1,18.008 -1.26,5.449 -2.96,6.906 -7.32,10.527 l -1.27,-1.004 c 1.27,-2.211 1.78,-2.199 2.63,-5.48 1.15,-4.637 1.02,-7.625 -0.12,-12.274 -2.51,4.746 -8.07,6.66 -14.01,4.93 -7.33,-1.953 -11.54,-9.578 -8.25,-16.504 l 7.31,-16.953 2.48,1.086 0.61,1.59 26.15,13.457 1.86,-1.231 1.42,0.461 -3.77,7.742" /><path
             id="path1008"
             style="fill:#231f20;fill-opacity:1;fill-rule:nonzero;stroke:none"
             d="m 2231.96,173.84 0.13,27.129 -2.24,7.371 9.3,-5.899 c -0.94,-0.234 -1.73,-0.546 -2.3,-1.003 -0.97,-0.989 -0.97,-5.04 -1.13,-11.125 l 29.83,0.402 0.57,1.308 1.54,-0.07 0.05,-10.683 -0.87,0.019 -1.31,2.512 -29.58,-0.5 c 0.04,-3.223 -0.43,-8.016 0.47,-8.731 0.34,-0.332 0.92,-0.683 1.7,-0.949 l -7.81,-5.172 1.65,5.391" /><path
             id="path1010"
             style="fill:#231f20;fill-opacity:1;fill-rule:nonzero;stroke:none"
             d="m 2263.22,148.086 2.31,12.207 -1.39,0.109 -2.1,-2.472 -28.77,5.09 -0.26,2.128 -2.46,0.204 -1.53,-11.211 1.81,-0.203 1.81,2.214 28.03,-4.824 0.97,-2.586 1.58,-0.656" /><path
             id="path1012"
             style="fill:#231f20;fill-opacity:1;fill-rule:nonzero;stroke:none"
             d="m 2250.52,141.73 1.25,1.336 6.77,-3.113 c 1.4,-5.527 1.17,-9.465 -1.24,-14.523 -4.85,-9.461 -11.92,-15.789 -25.34,-10.274 -13.04,5.879 -11.59,16.641 -7.21,26.711 1.34,3.094 2.66,4.785 4.34,7.703 l 7.46,-2.851 -0.56,-2.012 c -3.94,-0.203 -6.76,-1.992 -8.45,-5.477 -2.79,-5.585 1.55,-10.585 6.72,-14.621 5.13,-3.894 16.34,-2.214 19.26,3.586 1.81,3.895 0.77,9.676 -3,13.535" /><path
             id="path1014"
             style="fill:#231f20;fill-opacity:1;fill-rule:nonzero;stroke:none"
             d="m 2240.64,90.1758 6.2,10.9452 -1.38,0.039 -2.61,-1.5116 -26.57,14.5626 0.52,2.09 -2.27,0.965 -4.16,-10.02 1.69,-0.859 2.5,1.535 24.74,-13.8986 0.22,-2.6757 1.12,-1.1719" /><path
             id="path1016"
             style="fill:#231f20;fill-opacity:1;fill-rule:nonzero;stroke:none"
             d="m 2220.07,62.6172 17.27,19.7773 -3.71,9.5196 -2.45,-2.4883 c 0,0 0.85,-3.9649 0.52,-6.3594 -0.73,-4.7851 -7.32,-10.5351 -7.32,-10.5351 l -22.41,18.582 0.96,2.3828 -2.02,1.3672 -7.73,-9.7656 2.08,-1.4375 2.5,1.1367 21.78,-18.2422 -0.44,-2.5625 0.97,-1.375" /><path
             id="path1018"
             style="fill:#231f20;fill-opacity:1;fill-rule:nonzero;stroke:none"
             d="m 2160.04,17.0117 9.34,5.0664 -0.94,1.1446 -2.46,0.3711 -6.66,13.5234 c 0,0 5.55,3.9961 9.09,4.7578 1.77,0.4102 4.57,0.3828 4.57,0.3828 l -3.39,6.8438 c 0,0 -1.61,-2.0899 -2.8,-3.2344 -2.67,-2.5547 -9.43,-4.8711 -9.43,-4.8711 l -4.72,9.8828 c 0,0 6.61,4.707 10.86,5.9688 1.37,0.4179 4.05,0.9257 4.05,0.9257 0,0 0.12,1.8672 0.5,2.9297 0.61,1.836 2.33,4.4532 2.33,4.4532 l -27.4,-16.0352 0.57,-2.0195 2.72,0.0273 13.21,-26.25 -0.62,-2.2656 1.18,-1.6016" /><path
             id="path1020"
             style="fill:#231f20;fill-opacity:1;fill-rule:nonzero;stroke:none"
             d="m 2181.12,283.176 -81.14,12.762 c 1.02,-2.469 1.64,-5.293 1.64,-8.114 0,-11.613 -9.35,-20.988 -21.05,-20.988 -0.18,0 -0.46,0.031 -0.71,0.031 v 0 c -0.03,0 -0.03,0 -0.03,0 -0.25,0 -0.39,-0.031 -0.64,-0.031 -11.54,0 -20.5,9.375 -20.5,20.988 0,2.821 0.6,5.645 1.57,8.114 l -80.74,-12.762 c -2.33,13.758 -3.5,26.523 -3.5,37.929 0,4.122 0.21,7.93 0.49,11.817 h 48.26 c 13.29,0 14.39,-1.379 15,-2.004 0.89,-0.82 1.12,-3.027 -0.11,-3.906 -2.88,-1.809 -7.32,-3.946 -7.32,-10.449 0,-0.176 0,-0.235 0,-0.352 0,-5.223 4.61,-7.176 15.61,-11.543 3.16,-1.211 14.26,-5.594 14.26,-5.594 l 2.3,1.317 c 3.86,1.98 12.09,7.519 12.09,16.98 0,1.223 -0.15,2.192 -0.29,3.031 -0.31,1.278 -0.83,2.403 -1.37,3.34 0,0.028 0,0.039 0,0.078 -1.75,3.258 -3.86,4.239 -3.86,4.239 0,0 1.04,4.492 7.53,5.066 l 0.01,-0.047 c 0.29,0.067 0.47,0.125 0.73,0.125 0.09,0 0.46,0 0.51,0 3.25,0 5.43,-2.695 5.43,-5.879 0,-3.957 -2.53,-4.765 -2.53,-9.953 -0.07,-9.461 8.19,-15 12,-16.98 l 2.5,-1.317 c 0,0 11.32,4.383 14.41,5.594 11.14,4.367 15.62,6.32 15.62,11.543 0,0.117 0,0.176 0,0.352 0,6.503 -4.34,8.64 -7.16,10.449 -1.44,0.879 -1.19,3.086 -0.18,3.906 0.63,0.625 1.78,2.004 14.83,2.004 h 49.42 c 0.3,-3.887 0.55,-7.695 0.55,-11.817 0,-11.406 -1.26,-24.171 -3.63,-37.929 z m -7.28,-32.309 v 0 l -68.5,31.321 c 24.08,-3.731 59.05,-9.227 73.31,-11.446 -1.37,-6.523 -2.97,-12.976 -4.81,-19.875 z m -75.04,20.434 43.36,-20.434 h -29.79 z m 61.57,-62.696 c -11.21,0 -43.53,0 -52.01,0 0,6.375 0,21.075 0,29.559 h 61.9 c -2.92,-9.519 -6.17,-19.422 -9.89,-29.559 z m -74.03,42.262 v 16.086 l 10.7,-16.086 z m -23.47,0 10.66,16.086 v -16.086 z m 90.78,-59.812 c -3.39,-8.399 -6.92,-16.516 -10.61,-24.696 h -41.05 -6.36 V 78.1836 c -4.68,-6.7852 -8.81,-12.2344 -12.25,-15.9648 -0.95,-1.0079 -2.51,-2.5782 -3.52,-3.3321 -0.9,0.7539 -2.32,2.3242 -3.35,3.3321 -3.45,3.7304 -7.61,9.1796 -12.31,15.9648 v 88.1754 h -6.01 -40.79 c -3.69,8.18 -7.23,16.297 -10.49,24.696 -0.64,1.64 -1.32,3.23 -1.95,4.836 h 59.24 v 42.273 h 15.63 0.03 15.77 v -42.273 h 59.94 c -0.6,-1.606 -1.25,-3.196 -1.92,-4.836 z m -45.29,-92.8714 c 0,20.5074 0,48.7224 0,55.4104 5.74,0 19.35,0 29.04,0 -9.77,-20.664 -19.78,-39.774 -29.04,-55.4104 z m -56.44,0 c -9.28,15.6364 -19.36,34.7464 -29.06,55.4104 9.65,0 23.23,0 29.06,0 0,-6.688 0,-34.903 0,-55.4104 z M 1990.5,238.164 h 61.42 c 0,-8.484 0,-23.184 0,-29.559 -8.45,0 -40.5,0 -51.73,0 -3.75,10.137 -6.83,20.04 -9.69,29.559 z m 70.83,33.137 -13.54,-20.434 h -29.46 z m -74.5,-20.434 c -1.87,6.899 -3.45,13.352 -4.83,19.875 14.12,2.219 48.76,7.715 72.92,11.446 z m 93,100.422 h 0.03 c 48.35,0 96.81,0 101.26,0 0.51,-1.894 0.98,-3.945 1.32,-6.004 h -47.66 c -20.19,0 -28.83,-4.914 -28.83,-16.699 0,-3.633 2.01,-7.559 5.29,-10.332 -2.32,-0.93 -11.98,-4.387 -13.4,-5.012 -1.15,1.301 -3.32,3.36 -3.62,6.582 0.95,1.563 3.04,4.778 3.04,9.422 0,7.246 -4.99,14.594 -17.68,14.953 v 0 0 0 0 c -5.86,-0.222 -9.56,-1.941 -12.53,-4.304 -0.19,-0.215 -0.32,-0.364 -0.52,-0.579 -5.27,-1.453 -8.59,-5.105 -8.59,-9.804 v -5.028 c 0,0 2.32,-0.246 3.65,-0.742 1.7,-0.754 2.35,-1.633 2.88,-2.355 1.45,-2.071 0.23,-6.699 -2.69,-8.145 -1.37,0.625 -11.07,4.082 -13.43,5.012 3.32,2.773 5.47,6.699 5.47,10.332 0,11.785 -8.73,16.699 -29.05,16.699 h -46.6 c 0.44,2.059 0.8,4.11 1.36,6.004 4.58,0 52.38,0 100.3,0 z m -64.76,42.414 c 0,3.895 1.26,8.992 12.53,8.992 9.16,0 12.85,-1.394 14.41,-2.539 0.76,-0.476 1.79,-1.25 1.79,-5.136 0,0 0,-20.204 0.01,-30.977 h -28.74 c 0,10.508 0,29.66 0,29.66 z m 51.12,35.235 c 0,-1.426 0,-2.891 0,-4.27 -7.5,-2.273 -13.81,-6.844 -18.08,-13.301 -3.47,2.11 -7.81,3.078 -12.24,3.528 8.63,7.07 19.33,11.863 30.32,14.043 z m -8.21,24.824 c 5.07,0 18.17,0 18.17,0 0,0 0,12.976 0,18.172 1.51,0 2.66,0 3.68,0 h 0.03 c 1.22,0 2.39,0 3.92,0 0,-5.196 0,-18.172 0,-18.172 0,0 13.16,0 18.47,0 0,-3.164 0,-4.797 0,-8.059 -5.31,0 -18.47,0 -18.47,0 0,0 0,-13.183 0,-18.465 -1.53,0 -2.7,0 -3.92,0 h -0.03 c -1.02,0 -2.17,0 -3.68,0 0,5.282 0,18.465 0,18.465 0,0 -13.1,0 -18.17,0 0,3.262 0,4.895 0,8.059 z m 45.74,-58.742 v -30.977 h -47.21 l -0.03,30.977 c 0,8.894 5.89,19.171 23.35,19.171 v 0 c 0,0 0,0 0.03,0 v 0 0 c 17.78,0 23.86,-10.277 23.86,-19.171 z m 20.63,19.875 c -4.44,-0.45 -8.69,-1.418 -12.26,-3.528 -4.17,6.457 -10.48,11.028 -18.47,13.301 0,1.379 0,2.844 0,4.27 11.43,-2.18 22.15,-6.973 30.73,-14.043 z m 21.12,-21.192 c 0,0 0,-19.152 0,-29.66 h -29.05 c 0,10.773 0,30.977 0,30.977 0,3.886 1.05,4.66 1.72,5.136 1.59,1.145 5.38,2.539 14.56,2.539 11.41,0 12.77,-5.097 12.77,-8.992 z m 46.54,-34.023 -1.54,4.363 h -32.24 v 29.66 c 0,8.203 -4.13,16.832 -15.08,20.195 -7.93,9.598 -18.8,17.586 -31.04,22.704 v 27.058 c 0,0 -13.16,0 -18.49,0 0,5.278 0,18.235 0,18.235 h -13.76 -0.03 -13.64 c 0,0 0,-12.957 0,-18.235 -4.97,0 -18.1,0 -18.1,0 v -27.058 c -12.22,-5.118 -23.25,-13.106 -30.9,-22.704 -10.78,-3.363 -14.94,-11.992 -14.94,-20.195 v -29.66 h -32.13 l -1.39,-4.363 c -3.88,-11.817 -5.6,-24.758 -5.6,-38.879 0,-43.653 16.15,-94.735 31.94,-134.531 23.97,-60.184 55.64,-114.6684 72.13,-132.813 3.92,-3.9257 7.09,-7.3828 12.31,-7.5976 0.07,-0.0469 0.24,0 0.32,0 0,0 0,0 0.03,0 v 0 c 0.16,0 0.25,-0.0469 0.37,0 5.38,0.2148 8.59,3.6719 12.44,7.5976 16.89,18.1446 48.81,72.629 72.8,132.813 15.93,39.796 32.01,90.878 32.01,134.531 0,14.121 -1.49,27.062 -5.47,38.879" /><path
             id="path1022"
             style="fill:#b72021;fill-opacity:1;fill-rule:nonzero;stroke:none"
             d="m 35.0586,262.371 -0.1953,-21.504 v -6.629 l 0.1953,-4.922 c -0.1953,-3.601 0.5352,-4.257 3.7109,-4.257 11.5039,0 18.1953,1.379 22.2852,4.629 4.9922,4.16 7.918,10.847 7.918,17.871 0,10.156 -5.418,17.882 -14.1211,20.234 -3.5039,0.918 -8.4844,1.27 -15.1953,1.27 -3.8946,0 -4.5977,-0.352 -4.5977,-2.879 z m -0.1953,-59.723 c 0,-9.375 0.1953,-25.156 0.3789,-31.113 0.1797,-4.336 1.5742,-5.754 7.4141,-7.199 3.9062,-0.926 4.6406,-1.453 4.6406,-4.188 v -3.593 c 0,-2.168 -0.5586,-2.922 -2.3555,-2.922 -1.2109,0 -4.0547,0.176 -7.043,0.351 -3.3867,0.215 -8.3281,0.403 -13.8086,0.403 -6.5429,0 -10.9765,-0.188 -14.53121,-0.403 -3.02734,-0.175 -6.0039,-0.351 -7.08984,-0.351 C 0.535156,153.633 0,154.387 0,156.555 v 3.593 c 0,2.735 0.691406,3.262 4.76563,4.188 5.86717,1.445 7.27347,2.863 7.44137,7.199 0.1836,7.039 0.3594,19.93 0.3594,31.113 v 29.2 c 0,11.199 -0.1758,24.218 -0.3594,31.406 -0.1679,4.539 -1.5742,5.809 -7.44137,7.254 C 0.691406,271.406 0,271.953 0,274.648 v 3.645 c 0,2.156 0.535156,2.852 2.11719,2.852 1.76953,0 4.41406,-0.157 7.4414,-0.344 3.18361,-0.184 7.26561,-0.352 12.92191,-0.352 8.8593,0 8.8593,0 25.3008,0.539 3.5664,0.157 6.7304,0.157 9.5898,0.157 12.3242,0 20.6445,-2.676 26.3789,-9.036 5.4688,-5.546 8.8086,-13.875 8.8086,-21.98 0,-13.938 -8.4883,-26.699 -20.0391,-29.953 -3.8984,-1.074 -4.2382,-1.25 -4.2382,-2.18 0,-0.152 0.2031,-0.543 0.6914,-1.051 1.25,-2.179 2.3164,-4.015 2.8515,-5.617 3.7305,-8.504 15.4297,-29.324 21.6328,-37.801 4.9493,-6.894 7.258,-8.847 12.539,-10.117 3.399,-0.898 3.563,-1.074 3.563,-4.152 v -3.055 c 0,-1.625 -1.075,-2.57 -2.832,-2.57 h -1.414 c -3.879,0.176 -10.2544,0.351 -14.5122,0.351 -2.668,0 -6.3477,-0.175 -10.4024,-0.351 h -2.7343 c -3.3789,0 -3.3789,0 -7.6055,11.047 -1.5742,3.992 -13.625,29.511 -19.9531,42.851 -3.0274,6.524 -3.7383,7.047 -7.9766,7.047 h -1.2422 c -0.7031,-0.183 -1.2304,-0.183 -1.2304,-0.183 l -2.8399,0.183 c -1.0547,0 -1.9531,-1.277 -1.9531,-3.25 v -8.68" /><path
             id="path1024"
             style="fill:#b72021;fill-opacity:1;fill-rule:nonzero;stroke:none"
             d="m 171.25,190.148 c 0,2.403 -0.148,2.93 -1.367,2.93 -0.363,0 -0.723,0 -1.262,-0.168 l -1.949,-0.359 c -9.719,-1.856 -12.922,-2.59 -16.625,-4.766 -5.145,-2.89 -7.449,-6.672 -7.449,-11.562 0,-6.125 4.062,-10.129 10.086,-10.129 5.156,0 11.183,2.746 15.058,6.719 2.649,2.863 3.508,5.761 3.508,12.257 z m -43.449,43.536 c 0.519,4.863 1.75,6.308 7.265,7.722 6.184,1.485 16.036,2.746 22.774,2.746 22.324,0 32.805,-8.136 32.805,-25.578 l -0.555,-32.929 c 0,-18.055 0,-18.274 2.098,-20.254 1.621,-1.258 3.367,-1.786 7.625,-2.157 3.546,-0.351 4.609,-0.898 4.609,-3.086 v -2.882 c 0,-1.993 -0.543,-2.364 -3.719,-3.067 l -21.047,-3.554 c -1.054,-0.184 -2.5,-0.352 -3.894,-0.352 -1.672,0 -2.649,0.715 -3.008,2.668 -0.5,1.238 -1.008,5.781 -0.813,7.187 0,3.262 -0.351,4.735 -1.199,4.735 -0.176,0 -0.695,-0.391 -1.222,-0.75 -1.094,-1.098 -8.329,-6.328 -10.821,-7.754 -4.754,-2.883 -11.277,-4.68 -17.449,-4.68 -11.172,0 -20.02,9.883 -20.02,22.727 0,6.16 1.985,13.933 4.461,17.41 1.387,1.965 1.594,2.148 10.95,3.977 l 23.32,4.675 c 10.086,2.16 11.289,3.039 11.289,8.489 v 3.074 c 0,12.297 -4.578,16.933 -16.426,16.933 -7.59,0 -17.648,-2.898 -24.394,-6.824 -1.399,-0.918 -2.11,-1.113 -2.629,-1.113 -0.867,0 -1.238,0.781 -1.238,2.168 v 1.133 l 1.238,9.336" /><path
             id="path1026"
             style="fill:#b72021;fill-opacity:1;fill-rule:nonzero;stroke:none"
             d="m 232.176,200.305 c 0,-19.571 8.496,-33.477 20.91,-33.477 12.547,0 18.625,10.664 18.625,32.039 0,11.203 -1.242,18.586 -3.93,23.664 -3.015,5.567 -8.347,9.004 -14.527,9.004 -12.395,0 -21.078,-12.785 -21.078,-31.23 z m 55.273,89.207 c 0.879,0.187 1.699,0.187 2.071,0.187 1.582,0 2.484,-1.086 2.484,-3.254 l -1.25,-54.91 v -32.148 c 0,-23.164 0.211,-29.094 1.414,-31.457 1.609,-3.438 2.859,-4.18 10.449,-4.895 1.594,0 2.5,-0.699 2.5,-1.98 v -3.446 c 0,-1.769 -0.539,-2.336 -3.722,-2.871 l -22.809,-4.445 c -1.418,-0.195 -2.484,-0.371 -3.188,-0.371 -1.414,0 -1.953,0.906 -2.109,3.215 l -0.547,7.742 c -0.32,4.348 -0.32,4.512 -1.59,4.512 -0.175,0 -0.898,-0.36 -1.582,-1.055 -1.418,-1.453 -5.929,-5.254 -9.082,-7.578 -5.293,-3.621 -9.902,-5.059 -15.742,-5.059 -19.484,0 -33.391,18.028 -33.391,43.184 0,29.277 16.606,49.269 40.657,49.269 4.765,0 13.926,-2.004 16.14,-3.437 0.528,-0.551 1.067,-0.723 1.231,-0.723 0.715,0 1.445,1.414 1.445,2.899 0,0.156 0,0.156 -0.203,3.269 l -0.156,19.281 c 0,9.422 -0.539,10.125 -8.028,11.395 -3.359,0.371 -4.074,0.898 -4.074,3.406 v 3.168 c 0,1.793 0.715,2.352 3.547,2.684 l 25.535,3.418" /><path
             id="path1028"
             style="fill:#b72021;fill-opacity:1;fill-rule:nonzero;stroke:none"
             d="m 347.051,215.313 c -1.946,-4.883 -2.84,-12.137 -2.84,-23.477 0,-13.602 0.543,-18.496 1.949,-21.738 1.945,-3.789 7.805,-6.864 12.969,-6.864 13.742,0 24.004,14.793 24.004,34.539 0,18.965 -7.793,31.399 -19.656,31.399 -6.692,0 -13.254,-5.383 -16.426,-13.859 z m -22.481,18.535 c 0,15.539 -0.195,33.593 -0.547,36.847 -0.332,4.168 -2.296,5.782 -7.218,6.336 -4.461,0.34 -5.516,1.074 -5.516,3.211 v 2.785 c 0,1.661 0.703,2.176 2.996,2.539 l 25.844,3.782 3.387,0.574 c 1.238,0 2.109,-1.309 2.109,-3.094 0,-0.539 0,-1.465 -0.187,-2.531 -0.157,-4.219 -0.333,-9.434 -0.516,-24.07 0,-11.192 -0.168,-19.692 -0.344,-24.954 l -0.203,-3.046 v -1.278 c 0,-0.676 0.379,-1.078 0.906,-1.078 0.879,0 2.989,1.977 7.055,6.32 5.445,6.164 9.754,7.961 18.445,7.961 20.332,0 33.242,-16.054 33.242,-41.847 0,-30.02 -19.113,-50.606 -47.238,-50.606 -9.383,0 -22.117,3.203 -29.734,7.746 -2.324,1.434 -3.203,2.891 -3.203,5.946 v 1.98 c 0.351,15.559 0.527,34.192 0.722,56.594 v 9.883" /><path
             id="path1030"
             style="fill:#b72021;fill-opacity:1;fill-rule:nonzero;stroke:none"
             d="m 439.324,199.043 c 0,-19.188 10.02,-33.484 24.094,-33.484 12.605,0 22.297,13.386 22.297,30.429 0,20.41 -9.922,34.801 -23.899,34.801 -13.136,0 -22.492,-13.336 -22.492,-31.746 z m 61.086,26.359 c 4.094,-7.246 6.395,-16.086 6.395,-25.273 0,-12.16 -4.063,-24.453 -11.192,-33.117 -8.105,-10.098 -20.152,-15.313 -35.359,-15.313 -25.305,0 -41.77,17.141 -41.77,43.742 0,14.082 4.602,26.719 12.934,35.508 8.238,9.043 18.23,13.203 32,13.203 16.836,0 30.105,-6.711 36.992,-18.75" /><path
             id="path1032"
             style="fill:#b72021;fill-opacity:1;fill-rule:nonzero;stroke:none"
             d="m 604.609,200.305 c 0.188,-16.672 0.34,-26.575 0.692,-29.7 0.734,-4.824 2.5,-6.113 9.203,-7 2.848,-0.371 3.375,-0.917 3.375,-3.078 v -2.519 c 0,-2.168 -0.527,-2.735 -2.996,-3.106 l -24.082,-3.203 c -1.242,-0.195 -2.285,-0.351 -2.5,-0.351 -2.082,0 -2.082,0 -3.352,12.402 -0.176,2.754 -0.672,4.004 -1.777,4.004 -0.496,0 -1.348,-0.555 -3.668,-2.871 -12.024,-11.25 -15.539,-13.184 -25.129,-13.184 -6.707,0 -13.535,1.797 -18.078,4.856 -5.664,3.593 -8.125,9.754 -8.125,19.668 0,1.441 0,4.511 0.168,7.781 v 9.074 15.899 c 0,21.082 -0.559,22.675 -7.617,23.406 -4.075,0.359 -4.961,0.918 -4.961,2.89 v 3.086 c 0,2.176 0.535,2.508 3.027,2.883 l 25.867,2.539 c 1.789,0.164 3.012,0.371 3.203,0.371 1.211,0 1.739,-0.754 1.739,-2.16 0,-0.918 0,-2.375 -0.164,-3.957 -0.704,-8.531 -1.055,-20.039 -1.055,-28.719 v -14.074 c 0,-16.14 0.351,-18.828 3.164,-22.789 2.129,-3.098 6.035,-4.699 10.984,-4.699 8.301,0 15.766,3.965 18.938,10.109 2.254,4.141 2.812,8.68 2.812,22.442 v 8.828 c 0,6.914 -0.351,16.453 -0.754,18.191 -0.703,3.281 -2.402,4.715 -6.843,5.266 -4.075,0.351 -4.961,0.898 -4.961,2.683 v 3.274 c 0,1.988 0.547,2.527 3.015,2.695 l 25.45,2.703 c 1.046,0.207 2.113,0.207 2.832,0.207 1.781,0 2.285,-0.539 2.285,-2.16 l -0.172,-4.746 c -0.18,-4.656 -0.18,-4.656 -0.332,-12.547 -0.188,-3.261 -0.188,-7.246 -0.188,-11.769 v -12.625" /><path
             id="path1034"
             style="fill:#b72021;fill-opacity:1;fill-rule:nonzero;stroke:none"
             d="m 648.418,200.305 c 0,-19.571 8.465,-33.477 20.828,-33.477 12.871,0 19.063,10.664 19.063,32.039 0,11.203 -1.239,18.586 -3.907,23.664 -3.191,5.567 -8.769,9.004 -14.968,9.004 -12.356,0 -21.016,-12.785 -21.016,-31.23 z m 55.613,89.207 c 0.91,0.187 1.797,0.187 2.168,0.187 1.582,0 2.492,-1.086 2.492,-3.254 l -1.269,-54.91 v -32.148 c 0,-23.164 0.176,-29.094 1.394,-31.457 1.594,-3.438 2.805,-4.18 10.469,-4.895 1.563,0 2.434,-0.699 2.434,-1.98 v -3.446 c 0,-1.769 -0.52,-2.336 -3.703,-2.871 l -22.821,-4.445 c -1.425,-0.195 -2.461,-0.371 -3.175,-0.371 -1.407,0 -1.942,0.906 -2.118,3.215 l -0.547,7.742 c -0.351,4.348 -0.351,4.512 -1.574,4.512 -0.191,0 -0.898,-0.36 -1.601,-1.055 -1.434,-1.453 -6.192,-5.254 -9.469,-7.578 -5.324,-3.621 -9.914,-5.059 -15.766,-5.059 -19.414,0 -33.132,18.028 -33.132,43.184 0,29.277 16.359,49.269 40.402,49.269 4.773,0 14.234,-2.004 16.531,-3.437 0.527,-0.551 1.094,-0.723 1.25,-0.723 0.703,0 1.395,1.414 1.395,2.899 0,0.156 0,0.156 -0.145,3.269 l -0.176,19.281 c 0,9.422 -0.527,10.125 -8.437,11.395 -3.34,0.371 -4.055,0.898 -4.055,3.406 v 3.168 c 0,1.793 0.715,2.352 3.527,2.684 l 25.926,3.418" /><path
             id="path1036"
             style="fill:#b72021;fill-opacity:1;fill-rule:nonzero;stroke:none"
             d="m 788.66,231.848 c 0,11.199 -0.195,24.218 -0.367,31.406 -0.18,4.539 -1.582,5.809 -7.426,7.254 -4.09,0.898 -4.781,1.445 -4.781,4.14 v 3.645 c 0,2.156 0.516,2.852 2.312,2.852 1.016,0 4.247,-0.157 7.254,-0.344 3.352,-0.184 8.293,-0.352 13.782,-0.352 6.504,0 10.925,0.168 14.461,0.352 2.707,0.187 5.714,0.344 6.789,0.344 1.757,0 2.304,-0.696 2.304,-2.852 v -3.645 c 0,-2.695 -0.742,-3.242 -4.601,-4.14 -5.711,-1.445 -6.992,-2.715 -7.137,-7.254 -0.148,-5.891 -0.344,-22.012 -0.344,-31.406 v -19.055 c 0,-20.742 0.879,-28.613 3.996,-34.395 4.539,-8.671 14.453,-13.718 26.825,-13.718 14.875,0 25.304,6.133 29.179,17.175 2.317,6.817 2.52,9.231 2.52,31.79 v 18.203 c 0,10.672 -0.203,24.578 -0.379,31.406 -0.149,4.539 -1.387,5.809 -7.395,7.254 -4.089,0.898 -4.812,1.445 -4.812,4.14 v 3.645 c 0,2.156 0.578,2.852 2.324,2.852 1.231,0 4.246,-0.157 7.266,-0.344 3.34,-0.184 6.836,-0.352 10.019,-0.352 3.906,0 7.078,0.168 10.625,0.352 2.996,0.187 6.004,0.344 7.246,0.344 1.785,0 2.293,-0.696 2.293,-2.852 v -3.645 c 0,-2.695 -0.672,-3.242 -4.765,-4.14 -5.996,-1.445 -7.262,-2.715 -7.442,-7.254 -0.164,-6.125 -0.371,-21.477 -0.371,-31.406 v -17.453 c 0,-21.317 -0.34,-26.426 -1.746,-32.54 -4.59,-19.851 -21.398,-30.156 -49.512,-30.156 -21.601,0 -36.808,7.043 -43.359,20.02 -3.73,7.578 -4.758,16.066 -4.758,41.926 v 18.203" /><path
             id="path1038"
             style="fill:#b72021;fill-opacity:1;fill-rule:nonzero;stroke:none"
             d="m 906.434,237.109 c 0,2.715 0.312,3.254 2.394,3.606 l 25.125,3.066 c 1.621,0.164 2.844,0.371 3.02,0.371 1.425,0 2.312,-1.261 2.492,-3.437 0.172,-1.457 0.523,-9.926 0.523,-10.844 0.168,-2.156 0.879,-3.785 1.77,-3.785 0.515,0 1.23,0.535 1.953,1.238 l 1.75,1.992 3.379,3.426 c 8.445,9.25 12.871,11.41 23.133,11.41 12.734,0 22.129,-4.894 25.515,-13.363 1.543,-4.351 1.543,-4.351 1.543,-30.66 v -5.938 c 0,-10.558 0.149,-20.851 0.293,-24.464 0.305,-3.809 1.346,-4.844 6.666,-6.493 5.31,-1.652 5.48,-1.828 5.48,-4.347 v -2.852 c 0,-1.836 -0.51,-2.402 -1.93,-2.402 h -1.25 c -4.59,0.351 -12.606,0.566 -19.118,0.566 -6.742,0 -15.082,-0.215 -19.66,-0.566 h -1.27 c -1.426,0 -1.945,0.754 -1.945,2.402 v 2.852 c 0,2.519 0.176,2.695 5.48,4.347 5.332,1.649 6.368,2.684 6.739,6.493 0.156,4.179 0.332,14.113 0.332,24.464 v 5.938 c 0,11.355 -0.52,16.269 -1.934,20.047 -1.945,4.883 -6.711,7.539 -13.234,7.539 -7.274,0 -13.965,-3.367 -18.028,-9.141 -3.023,-4.179 -3.757,-8.144 -3.757,-19.707 v -4.676 c 0,-10.91 0.195,-20.285 0.378,-24.464 0.356,-3.809 1.438,-4.844 6.567,-6.493 5.262,-1.828 5.437,-1.828 5.437,-4.347 v -2.852 c 0,-1.648 -0.539,-2.402 -1.98,-2.402 h -1.223 c -4.543,0.351 -12.5,0.566 -19.238,0.566 -6.699,0 -15.402,-0.215 -19.648,-0.566 h -1.243 c -1.402,0 -1.933,0.754 -1.933,2.402 v 2.852 c 0,2.519 0.187,2.695 5.492,4.347 5.281,1.649 6.363,2.684 6.726,6.493 0.157,3.8 0.352,13.554 0.352,24.464 v 6.297 c 0,8.828 -1.066,22.942 -2.102,26.133 -0.933,3.067 -2.695,4.168 -8.171,4.492 -4.102,0.422 -4.875,0.735 -4.875,2.375 v 3.621" /><path
             id="path1040"
             style="fill:#b72021;fill-opacity:1;fill-rule:nonzero;stroke:none"
             d="m 1060.45,270.508 c 0,-7.422 -6.17,-13.379 -13.96,-13.379 -7.59,0 -13.83,5.793 -13.83,13.242 0,7.734 5.84,12.656 14.52,12.656 7.79,0 13.27,-4.922 13.27,-12.519 z m -22.12,-61.531 c 0,21.296 -0.36,22.558 -7.61,23.406 -4.08,0.359 -4.97,0.918 -4.97,2.715 v 3.261 c 0,2.004 0.56,2.508 3.03,2.715 l 25.31,2.707 1.45,0.164 c 0.49,0.207 1.01,0.207 1.4,0.207 1.56,0 2.31,-1.261 2.31,-3.437 0,-0.352 0,-0.352 -0.2,-7.031 -0.17,-3.079 -0.38,-20.579 -0.38,-30.508 v -8.985 c 0,-10.558 0.21,-20.117 0.38,-24.464 0.35,-3.809 1.4,-4.844 6.55,-6.493 5.31,-1.652 5.48,-1.828 5.48,-4.347 v -2.852 c 0,-1.648 -0.54,-2.402 -1.93,-2.402 h -1.25 c -4.61,0.351 -12.55,0.566 -19.34,0.566 -6.7,0 -15.16,-0.215 -19.6,-0.566 h -1.25 c -1.59,0 -1.96,0.566 -1.96,2.402 v 2.852 c 0,2.519 0,2.519 5.51,4.347 5.5,1.797 6.4,2.684 6.71,6.493 0.18,4.699 0.36,13 0.36,24.464 v 14.786" /><path
             id="path1042"
             style="fill:#b72021;fill-opacity:1;fill-rule:nonzero;stroke:none"
             d="m 1167.42,238.547 c 0,-2.531 0,-2.531 -3.38,-3.449 -2.29,-1.055 -3.37,-2.715 -6.35,-10.399 -1.94,-5.07 -1.94,-5.07 -17.17,-42.328 -5.67,-14.07 -6.91,-17.34 -8.15,-20.789 -1.56,-4.316 -1.56,-4.48 -2.28,-5.547 -0.54,-0.898 -1.22,-1.297 -3.7,-1.648 -1.63,-0.188 -2.15,-0.188 -8.36,-1.25 -0.71,-0.176 -1.42,-0.176 -1.96,-0.176 -1.73,0 -1.92,0.176 -3.88,5.926 -2.32,6.34 -3.89,10.312 -12.04,32.578 -8.42,23.301 -11.67,32.5 -14.67,39.484 -1.24,3.094 -1.61,3.289 -5.69,4.696 -1.04,0.371 -1.57,1.464 -1.57,2.902 v 3.23 c 0,1.836 0.72,2.375 3.02,2.375 0.53,0 0.53,0 8.6,-0.371 1.69,-0.168 4.91,-0.168 9.08,-0.168 8.33,0 13.44,0.168 18.76,0.539 h 2.14 c 1.75,0 2.43,-0.539 2.43,-2.375 v -3.23 c 0,-2.356 -0.15,-2.356 -4.93,-3.613 -5.13,-1.25 -7.09,-2.551 -7.09,-5.063 0,-0.887 0.19,-2.156 0.74,-3.609 0.87,-2.649 1.74,-5.383 2.46,-8.106 l 4.42,-14.242 c 5.49,-17.742 9.21,-29.117 9.58,-29.117 0.18,0 0.35,0.879 0.69,1.973 l 0.75,2.527 1.55,4.883 c 0.9,2.898 2.15,6.328 3.19,10.011 l 5.14,14.063 c 5.48,15.711 6.92,20.547 6.92,22.535 0,2.152 -2.83,4.145 -7.28,5.039 -2.12,0.586 -2.66,1.086 -2.66,2.719 v 3.23 c 0,1.621 0.72,2.375 2.14,2.375 0.52,0 1.05,0 1.93,-0.207 2.13,-0.164 9.4,-0.332 12.95,-0.332 3.32,0 7.39,0.168 11.12,0.539 h 1.61 c 1.39,0 1.94,-0.539 1.94,-2.375 v -3.23" /><path
             id="path1044"
             style="fill:#b72021;fill-opacity:1;fill-rule:nonzero;stroke:none"
             d="m 1202.63,213.301 8.14,0.754 c 3.2,0.164 11.88,0.867 15.01,1.425 2.71,0.165 3.75,1.258 3.75,3.622 0,3.253 -1.25,7.16 -3.37,10.07 -2.12,2.867 -5.65,4.512 -10.45,4.512 -5.67,0 -11.3,-2.735 -14.51,-6.887 -2.82,-3.367 -4.96,-8.641 -4.96,-11.68 0,-1.472 0.74,-2.012 2.5,-2.012 z m -3,-8.817 c -6.55,0 -7.25,-0.57 -7.25,-6.711 0,-17.187 11.14,-30.019 26.37,-30.019 8.83,0 21.6,4.324 27.39,9.219 0.37,0.343 0.53,0.519 0.69,0.519 0.54,0 1.08,-0.722 1.08,-1.64 0,-2.688 -1.65,-14.602 -2,-15.891 -0.49,-1.074 -2.39,-2.156 -7.34,-4.121 -6.4,-2.559 -14.89,-4.141 -22.3,-4.141 -25.84,0 -43.43,17.832 -43.43,43.543 0,27.973 18.62,48.91 44.32,48.91 20.9,0 32.32,-11.925 32.32,-33.363 0,-4.891 -1.94,-6.305 -8.61,-6.305 h -41.24" /><path
             id="path1046"
             style="fill:#b72021;fill-opacity:1;fill-rule:nonzero;stroke:none"
             d="m 1264.15,236.191 c 0,2.696 0.54,3.243 3.19,3.633 l 25.69,3.957 1.45,0.164 c 0.68,0.207 1.23,0.207 1.38,0.207 1.27,0 2.11,-1.261 2.11,-3.078 l -0.14,-7.929 c 0,-7.743 0.14,-8.985 1.57,-8.985 0.57,0 2.11,1.242 3.37,2.805 2.66,3.094 2.66,3.094 6.91,7.969 4.97,5.601 6.74,6.843 11.8,8.113 2.68,0.734 5.32,1.105 8.53,1.105 4.61,0 6.54,-1.261 6.37,-3.988 v -0.34 l -0.73,-12.695 c -0.16,-3.164 -0.91,-4.434 -2.47,-4.434 -0.35,0 -0.89,0.188 -1.63,0.371 -2.1,0.723 -6.18,1.094 -10.24,1.094 -6.5,0 -11.63,-1.805 -15,-5.058 -4.04,-4.18 -4.8,-7.774 -4.8,-25.664 v -7.793 l 0.39,-11.571 c 0.17,-5.937 0.55,-7.441 2.99,-8.683 1.42,-0.711 1.62,-0.711 9.22,-2.508 5.4,-1.301 5.61,-1.301 5.61,-3.801 v -2.527 c 0,-1.817 -0.88,-2.922 -2.34,-2.922 h -0.79 c -5.14,0.176 -19.29,0.566 -26.39,0.566 -5.65,0 -13.93,-0.215 -18.1,-0.566 h -1.23 c -1.41,0 -1.94,0.754 -1.94,2.402 v 2.852 c 0,2.519 0,2.519 5.24,4.347 5.42,1.797 6.32,2.684 6.64,6.493 0.18,4.531 0.38,12.843 0.38,24.464 v 5.938 c 0,9.004 -1.24,19.305 -3.02,24.219 -1.59,4.453 -4.15,6.093 -9.58,6.257 -3.9,0.184 -4.44,0.508 -4.44,2.54 v 3.046" /><path
             id="path1048"
             style="fill:#b72021;fill-opacity:1;fill-rule:nonzero;stroke:none"
             d="m 1408.05,225.586 c -0.19,-2.891 -0.54,-3.231 -2.51,-3.231 h -2.8 c -1.78,0 -1.78,0 -3.54,4.61 -1.96,4.687 -7.45,7.43 -15.2,7.43 -8.46,0 -14.16,-4.707 -14.16,-11.7 0,-4.851 2.48,-8.117 9.39,-12.09 4.06,-2.351 4.06,-2.351 15.88,-7.781 11.52,-5.234 18.2,-13.761 18.2,-23.722 0,-16.414 -14.64,-27.403 -36.9,-27.403 -8.49,0 -17.06,1.797 -22.86,4.856 -2.51,1.054 -3.03,2.187 -2.86,5.027 l 1.06,12.324 c 0.16,2.149 1.07,3.067 3.04,3.067 h 2.97 c 1.97,0 2.13,0 3.21,-4.688 1.62,-6.191 9.07,-10.879 17.41,-10.879 9.01,0 15.3,4.903 15.3,11.934 0,5.41 -2.79,8.312 -12.5,12.832 -22.69,10.312 -28.36,16.476 -28.36,29.875 0,17.637 12.87,28.105 34.73,28.105 6.67,0 13.93,-1.261 18.19,-3.078 2.82,-1.082 3.53,-2 3.53,-4.16 v -0.5 l -1.22,-10.828" /><path
             id="path1050"
             style="fill:#b72021;fill-opacity:1;fill-rule:nonzero;stroke:none"
             d="m 1463.52,270.508 c 0,-7.422 -6.14,-13.379 -13.66,-13.379 -7.61,0 -13.81,5.793 -13.81,13.242 0,7.734 5.83,12.656 14.51,12.656 7.49,0 12.96,-4.922 12.96,-12.519 z m -21.82,-61.531 c 0,21.296 -0.31,22.558 -7.58,23.406 -4.08,0.359 -4.97,0.918 -4.97,2.715 v 3.261 c 0,2.004 0.52,2.508 3.02,2.715 l 25.14,2.707 1.29,0.164 c 0.5,0.207 1.04,0.207 1.41,0.207 1.58,0 2.29,-1.261 2.29,-3.437 0,-0.352 0,-0.352 -0.16,-7.031 -0.17,-3.079 -0.32,-20.579 -0.32,-30.508 v -8.985 c 0,-10.558 0.15,-20.117 0.32,-24.464 0.34,-3.809 1.38,-4.844 6.46,-6.493 5.35,-1.652 5.5,-1.828 5.5,-4.347 v -2.852 c 0,-1.648 -0.53,-2.402 -1.93,-2.402 h -1.25 c -4.59,0.351 -12.51,0.566 -18.95,0.566 -6.7,0 -15.2,-0.215 -19.62,-0.566 h -1.24 c -1.6,0 -1.96,0.566 -1.96,2.402 v 2.852 c 0,2.519 0,2.519 5.52,4.347 5.49,1.797 6.33,2.684 6.72,6.493 0.15,4.699 0.31,13 0.31,24.464 v 14.786" /><path
             id="path1052"
             style="fill:#b72021;fill-opacity:1;fill-rule:nonzero;stroke:none"
             d="m 1500.66,218.156 c -0.16,10.477 -0.16,10.645 -4.43,10.645 -0.71,0 -0.71,0 -3.2,-0.168 h -4.56 c -1.46,-0.176 -2.47,-0.176 -2.68,-0.176 -1.07,0 -1.77,0.527 -1.77,1.047 0,0.367 0.18,1.285 0.7,2.344 l 2.12,5.965 c 1.48,3.964 1.79,4.335 3.56,4.335 0.51,0 2.11,-0.156 4.25,-0.371 0.7,-0.175 1.43,-0.175 2.13,-0.175 3.19,0 4.39,1.113 4.39,3.808 0,0.918 -0.17,6.699 -0.51,11.953 -0.16,2.864 -0.16,5.559 -0.16,7.559 0,3.957 1,5.449 4.92,6.875 l 11.17,3.965 c 3.56,1.269 3.56,1.269 4.08,1.269 1.05,0 1.78,-1.269 1.78,-2.695 0,-1.113 -0.19,-3.106 -0.53,-5.273 -0.58,-4.5 -1.77,-19.676 -1.77,-23.094 0,-3.254 0.84,-3.821 5.99,-3.821 h 14.47 c 4.24,0 6.56,0.207 8.88,0.567 h 1.07 c 0.89,0 1.44,-0.567 1.44,-1.473 0,-1.078 -0.55,-2.883 -2.15,-8.301 -0.83,-3.769 -1.64,-4.484 -4.48,-4.484 -0.68,0 -0.68,0 -5.26,0.344 -1.25,0 -3.32,0.183 -6.69,0.371 -3.94,0.144 -5.16,0.144 -6.72,0.144 -5.71,0 -5.71,0 -5.71,-7.734 v -27.781 c 0,-14.153 0.35,-18.801 2.13,-22.266 1.62,-3.398 5.14,-5.226 10.67,-5.226 3.87,0 8.06,0.703 14.25,2.363 1.08,0.344 1.99,0.527 2.33,0.527 0.91,0 1.28,-0.527 1.28,-1.445 0,-2.527 -1.43,-11.199 -1.93,-11.914 -1.33,-1.856 -13.49,-4.141 -21.79,-4.141 -20.2,0 -27.82,5.91 -27.82,21.641 l 0.22,10.664 c 0.17,4.355 0.33,7.461 0.33,9.797 v 24.355" /><path
             id="path1054"
             style="fill:#b72021;fill-opacity:1;fill-rule:nonzero;stroke:none"
             d="m 1591.98,213.301 8.24,0.754 c 3.15,0.164 11.82,0.867 14.96,1.425 2.71,0.165 3.74,1.258 3.74,3.622 0,3.253 -1.23,7.16 -3.38,10.07 -2.1,2.867 -5.6,4.512 -10.39,4.512 -5.67,0 -11.38,-2.735 -14.58,-6.887 -2.8,-3.367 -4.93,-8.641 -4.93,-11.68 0,-1.472 0.69,-2.012 2.45,-2.012 z m -2.99,-8.817 c -6.55,0 -7.27,-0.57 -7.27,-6.711 0,-17.187 11.15,-30.019 26.46,-30.019 8.79,0 21.53,4.324 27.38,9.219 0.37,0.343 0.54,0.519 0.72,0.519 0.5,0 1.05,-0.722 1.05,-1.64 0,-2.688 -1.58,-14.602 -1.96,-15.891 -0.51,-1.074 -2.46,-2.156 -7.41,-4.121 -6.39,-2.559 -14.89,-4.141 -22.25,-4.141 -25.93,0 -43.82,17.832 -43.82,43.543 0,27.973 18.92,48.91 44.71,48.91 20.82,0 32.32,-11.925 32.32,-33.363 0,-4.891 -1.97,-6.305 -8.65,-6.305 h -41.28" /><path
             id="path1056"
             style="fill:#b72021;fill-opacity:1;fill-rule:nonzero;stroke:none"
             d="m 1688.82,270.508 c 0,-7.422 -6.15,-13.379 -13.95,-13.379 -7.59,0 -13.78,5.793 -13.78,13.242 0,7.734 5.81,12.656 14.53,12.656 7.75,0 13.2,-4.922 13.2,-12.519 z m -22.07,-61.531 c 0,21.296 -0.36,22.558 -7.61,23.406 -4.07,0.359 -4.95,0.918 -4.95,2.715 v 3.261 c 0,2.004 0.51,2.508 2.99,2.715 l 25.34,2.707 1.42,0.164 c 0.51,0.207 0.98,0.207 1.33,0.207 1.61,0 2.32,-1.261 2.32,-3.437 0,-0.352 0,-0.352 -0.17,-7.031 -0.2,-3.079 -0.38,-20.579 -0.38,-30.508 v -8.985 c 0,-10.558 0.18,-20.117 0.38,-24.464 0.38,-3.809 1.4,-4.844 6.54,-6.493 5.33,-1.652 5.46,-1.828 5.46,-4.347 v -2.852 c 0,-1.648 -0.5,-2.402 -1.92,-2.402 h -1.24 c -4.59,0.351 -12.49,0.566 -19.26,0.566 -6.72,0 -15.2,-0.215 -19.63,-0.566 h -1.23 c -1.59,0 -1.95,0.566 -1.95,2.402 v 2.852 c 0,2.519 0,2.519 5.52,4.347 5.46,1.797 6.33,2.684 6.68,6.493 0.19,4.699 0.36,13 0.36,24.464 v 14.786" /><path
             id="path1058"
             style="fill:#b72021;fill-opacity:1;fill-rule:nonzero;stroke:none"
             d="m 1726,218.156 c -0.18,10.477 -0.18,10.645 -4.44,10.645 -0.71,0 -0.71,0 -3.18,-0.168 h -4.59 c -1.42,-0.176 -2.47,-0.176 -2.66,-0.176 -1.06,0 -1.79,0.527 -1.79,1.047 0,0.367 0.22,1.285 0.73,2.344 l 2.14,5.965 c 1.41,3.964 1.74,4.335 3.52,4.335 0.56,0 2.14,-0.156 4.26,-0.371 0.69,-0.175 1.41,-0.175 2.12,-0.175 3.18,0 4.43,1.113 4.43,3.808 0,0.918 -0.14,6.699 -0.54,11.953 -0.18,2.864 -0.18,5.559 -0.18,7.559 0,3.957 1.03,5.449 4.93,6.875 l 10.88,3.965 c 3.54,1.269 3.54,1.269 4.08,1.269 1.03,0 1.78,-1.269 1.78,-2.695 0,-1.113 -0.23,-3.106 -0.56,-5.273 -0.55,-4.5 -1.76,-19.676 -1.76,-23.094 0,-3.254 0.89,-3.821 5.97,-3.821 h 14.51 c 4.25,0 6.54,0.207 9.18,0.567 h 1.08 c 0.88,0 1.41,-0.567 1.41,-1.473 0,-1.078 -0.53,-2.883 -2.14,-8.301 -1.04,-3.769 -1.92,-4.484 -4.78,-4.484 -0.69,0 -0.69,0 -5.3,0.344 -1.23,0 -3.33,0.183 -6.73,0.371 -3.84,0.144 -5.07,0.144 -6.65,0.144 -5.66,0 -5.66,0 -5.66,-7.734 v -27.781 c 0,-14.153 0.32,-18.801 2.1,-22.266 1.6,-3.398 5.14,-5.226 10.58,-5.226 3.87,0 8.1,0.703 14.34,2.363 1.42,0.344 2.3,0.527 2.64,0.527 0.89,0 1.23,-0.527 1.23,-1.445 0,-2.527 -1.39,-11.199 -1.94,-11.914 -1.57,-1.856 -13.78,-4.141 -22.07,-4.141 -20.12,0 -27.46,5.91 -27.46,21.641 l 0.16,10.664 c 0.18,4.355 0.36,7.461 0.36,9.797 v 24.355" /></g></g></g></g>
	<script>
		if(navigator.language.indexOf("nl")==0 || window.location.href.indexOf("lang=nl")!=-1){
			document.getElementById("ru_logo_nl").style.visibility = "visible"
			document.getElementById("ru_logo_en").style.visibility = "hidden"
		}
	</script>
	</svg>
